<?xml version="1.0" standalone="no"?>
<!DOCTYPE svg PUBLIC "-//W3C//DTD SVG 20010904//EN"
 "http://www.w3.org/TR/2001/REC-SVG-20010904/DTD/svg10.dtd">
<svg version="1.0" xmlns="http://www.w3.org/2000/svg"
 width="300.000000pt" height="171.000000pt" viewBox="0 0 300.000000 171.000000"
 preserveAspectRatio="xMidYMid meet">
<metadata>
Created by potrace 1.10, written by Peter Selinger 2001-2011
</metadata>
<g transform="translate(0.000000,171.000000) scale(0.100000,-0.100000)"
fill="#000000" stroke="none">
<path d="M15 1700 c-4 -6 -7 -76 -8 -155 l-2 -144 24 -4 c13 -3 43 -4 67 -3
42 2 44 0 44 -26 0 -25 -2 -27 -24 -18 -13 5 -32 7 -42 5 -11 -2 -31 -4 -46
-4 -16 -1 -28 -5 -28 -11 0 -6 30 -10 70 -10 l70 0 0 -35 0 -34 -72 -4 -73 -3
83 -2 c80 -2 84 -3 112 -34 16 -17 33 -29 36 -25 4 4 2 7 -4 7 -7 0 -12 5 -12
10 0 7 6 7 18 1 10 -5 24 -6 31 -2 19 12 -7 29 -58 37 -31 5 -41 11 -37 21 4
8 6 26 6 39 l0 24 371 0 c244 0 368 -3 364 -10 -3 -5 -1 -10 4 -10 6 0 11 5
11 10 0 6 50 10 130 10 l130 0 0 48 0 48 -132 0 -133 1 -3 118 c-2 72 1 122 8
129 7 7 11 -23 12 -95 l2 -104 3 94 c2 52 9 101 15 108 18 22 38 15 39 -14 2
-24 2 -25 6 -5 3 14 12 22 24 22 15 0 19 -8 21 -42 l1 -43 4 40 c5 42 19 68
33 60 5 -3 11 -1 15 5 4 7 -68 9 -227 6 -128 -3 -242 -6 -253 -6 -11 -1 -47 1
-80 5 -53 6 -58 5 -42 -8 12 -10 17 -30 19 -68 1 -38 2 -44 5 -19 8 73 18 62
23 -25 l6 -90 2 88 c2 79 4 87 22 87 10 0 25 -6 32 -14 11 -11 18 -9 45 11 18
14 37 22 43 18 6 -4 11 -56 12 -128 l2 -122 5 117 c3 64 9 119 13 123 16 17
28 -11 28 -66 0 -33 4 -58 8 -55 5 3 7 19 4 37 -3 23 -1 30 7 24 9 -5 12 -1
11 11 -1 11 -2 27 -1 37 1 22 50 42 65 27 5 -5 18 -10 28 -10 13 0 18 -8 19
-32 1 -18 3 -77 5 -130 l3 -97 -164 1 c-142 0 -164 2 -170 16 -3 9 -3 13 1 10
10 -11 44 11 44 27 0 18 -61 21 -90 5 -23 -12 -70 6 -70 27 0 16 -58 53 -82
53 -21 0 -23 -17 -7 -57 6 -15 15 -40 19 -55 l9 -28 -80 0 -79 0 0 126 c0 104
3 128 17 142 16 16 14 17 -32 20 -31 2 -51 -1 -56 -9 -6 -10 -13 -10 -34 -1
-32 15 -102 16 -110 2z m111 -46 c24 -23 34 -38 27 -41 -9 -3 -13 -33 -13 -99
l0 -94 -60 0 -61 0 3 122 c3 119 4 123 28 135 34 17 32 18 76 -23z m93 -109
l2 -125 -26 0 -25 0 0 123 c0 124 9 159 35 137 8 -7 13 -53 14 -135z m196 -28
c0 -8 4 -19 8 -23 4 -4 7 -2 7 4 0 7 9 3 20 -8 24 -24 26 -34 4 -26 -14 5 -15
4 -5 -8 7 -8 10 -20 6 -26 -10 -16 11 -12 25 5 7 8 19 15 27 15 8 0 12 4 9 9
-6 9 34 24 42 16 3 -3 0 -11 -6 -18 -7 -8 -8 -17 -4 -22 4 -4 -3 -6 -15 -3
-14 4 -21 2 -20 -6 3 -15 -43 -19 -77 -6 -23 8 -27 15 -24 35 4 17 1 25 -8 25
-14 0 -18 12 -15 39 2 8 -2 10 -10 5 -7 -4 -10 -3 -6 4 10 15 42 8 42 -11z
m-258 -69 c-2 -18 -4 -6 -4 27 0 33 2 48 4 33 2 -15 2 -42 0 -60z m64 -65 c1
-16 2 -16 6 -1 4 15 33 17 339 17 l334 0 0 -22 c0 -21 -3 -22 -90 -19 -61 2
-90 7 -90 15 0 9 -2 9 -8 0 -6 -9 -80 -13 -275 -15 l-267 -3 0 23 c0 17 6 22
25 22 17 0 25 -6 26 -17z m935 6 c13 -21 -12 -27 -123 -31 -98 -3 -113 -1
-116 14 -3 9 -2 19 1 22 11 11 231 6 238 -5z"/>
<path d="M298 1687 c12 -13 22 -29 22 -36 0 -24 18 -1 22 29 4 28 3 30 -30 30
l-35 0 21 -23z"/>
<path d="M1165 1701 l40 -6 6 -80 5 -80 2 82 c1 54 6 83 15 86 6 3 -15 5 -48
5 -53 -1 -55 -2 -20 -7z"/>
<path d="M1520 1700 c19 -5 44 -7 55 -4 11 2 40 -2 65 -9 42 -13 45 -16 48
-53 4 -58 12 -74 23 -46 5 13 6 28 3 33 -3 5 0 25 7 44 10 26 19 35 35 35 19
0 23 -6 26 -37 l3 -38 5 43 6 42 -156 -1 c-106 -1 -144 -4 -120 -9z"/>
<path d="M1987 1703 c18 -2 50 -2 70 0 21 2 7 4 -32 4 -38 0 -55 -2 -38 -4z"/>
<path d="M2225 1703 c43 -2 85 -9 92 -15 9 -7 13 -46 13 -140 l0 -130 -225 8
c-205 6 -225 5 -225 -10 0 -14 23 -16 225 -16 l225 0 0 -27 0 -28 -201 3
c-203 4 -255 0 -244 -18 4 -6 95 -10 227 -10 l221 0 -6 -42 c-3 -24 -1 -52 3
-63 6 -13 9 18 9 82 l1 102 309 -1 310 -2 -2 -85 c-3 -160 2 -243 15 -235 7 5
8 3 3 -6 -7 -11 -12 -9 -23 8 -8 12 -23 22 -34 22 -17 0 -18 -2 -8 -15 11 -13
15 -13 21 -3 6 9 9 6 9 -10 0 -14 -4 -21 -11 -16 -7 4 -6 -3 2 -17 l13 -24 7
25 c4 14 7 21 8 17 1 -4 10 -3 22 3 19 11 19 13 5 29 -14 15 -16 55 -14 302 1
176 4 252 8 199 5 -65 7 -73 9 -35 1 28 3 71 5 96 l4 47 -57 5 c-91 10 -492 7
-536 -3 -25 -6 -44 -5 -49 0 -6 6 -55 9 -110 8 -100 -2 -100 -2 -21 -5z m349
-30 c-5 -17 -4 -17 9 0 9 11 18 14 21 8 4 -6 22 -10 40 -9 18 1 39 -3 46 -7 9
-5 11 -4 6 3 -13 21 23 13 46 -10 14 -14 23 -18 26 -10 12 37 74 58 84 30 3
-7 4 -64 3 -125 -1 -62 2 -113 7 -113 4 0 8 53 8 118 0 65 3 121 6 124 3 3 14
4 25 1 16 -5 19 -15 21 -67 l2 -61 3 53 c3 37 8 52 19 52 11 0 14 -22 14 -120
l0 -120 -310 0 -310 0 0 109 c0 122 6 133 72 132 10 0 20 4 23 9 3 4 27 6 54
3 29 -3 52 0 56 6 11 18 35 13 29 -6z"/>
<path d="M2505 1593 c-9 -9 -21 -27 -26 -40 -5 -14 -15 -22 -22 -19 -90 37
-125 29 -84 -20 13 -16 27 -37 30 -47 11 -29 38 -33 58 -9 11 14 28 22 48 22
34 0 52 23 33 42 -7 7 -8 17 -2 28 10 18 3 60 -10 60 -5 0 -16 -7 -25 -17z
m12 -63 c-3 -11 0 -20 6 -20 7 0 7 -4 -2 -12 -10 -11 -15 -9 -27 7 -13 18 -13
21 3 32 23 18 26 16 20 -7z m-97 -12 c0 7 5 12 11 12 6 0 8 -7 5 -16 -3 -8 -2
-12 4 -9 6 3 10 2 10 -4 0 -5 2 -16 5 -23 4 -9 -2 -14 -16 -15 -14 -1 -19 3
-15 12 3 8 1 17 -4 20 -6 3 -15 16 -20 28 -11 21 -11 21 4 3 9 -11 16 -14 16
-8z"/>
<path d="M1443 1609 c-54 -10 -91 -30 -148 -79 -34 -29 -41 -40 -28 -40 11 0
34 16 53 35 47 48 110 76 176 76 31 1 54 2 52 4 -9 8 -68 11 -105 4z"/>
<path d="M1600 1581 c19 -11 66 -49 104 -84 68 -63 68 -64 72 -123 l3 -59 -14
40 c-21 55 -50 83 -120 116 -105 51 -245 36 -329 -33 -21 -17 -45 -45 -53 -62
l-14 -31 6 43 c3 29 2 41 -5 37 -5 -3 -10 -28 -10 -56 0 -27 -4 -49 -10 -49
-16 0 -12 -77 6 -94 26 -27 34 -18 34 38 0 55 16 116 30 116 5 0 3 -21 -5 -47
-39 -128 9 -233 125 -273 36 -13 46 -19 30 -19 -40 -1 -104 34 -133 70 -32 41
-36 30 -5 -13 34 -49 98 -72 201 -72 48 -1 91 4 95 9 21 29 94 42 76 13 -9
-15 30 8 45 26 7 9 11 23 7 31 -3 8 0 15 6 15 6 0 9 3 5 6 -3 3 -1 18 4 34 8
22 15 27 32 23 13 -3 18 -1 11 4 -14 10 -18 110 -4 118 5 3 10 23 10 45 0 33
3 37 20 33 26 -7 28 -59 3 -66 -10 -3 -5 -5 12 -6 17 -1 25 -5 19 -9 -8 -5 -7
-17 3 -41 20 -47 24 -35 13 35 -6 32 -10 76 -10 97 0 25 -5 40 -15 44 -22 8
-30 -4 -15 -22 10 -12 10 -15 -4 -15 -10 0 -14 5 -11 10 3 6 1 10 -4 10 -6 0
-11 -5 -11 -12 0 -9 -3 -9 -11 -1 -8 8 -8 17 0 32 9 16 9 20 -2 15 -8 -3 -29
14 -51 40 -37 46 -99 88 -146 100 -19 5 -17 2 10 -13z m-10 -123 c63 -14 133
-73 150 -124 7 -19 10 -63 8 -97 -6 -76 -9 -89 -27 -103 -10 -8 -11 -13 -3
-18 8 -5 8 -13 0 -31 -11 -25 -28 -34 -28 -14 0 5 -6 7 -12 3 -7 -4 -6 1 3 12
16 19 15 44 -2 44 -5 0 -9 -7 -9 -16 0 -32 -131 -68 -185 -50 -69 24 -123 59
-142 94 -24 45 -26 142 -4 150 9 3 12 0 8 -10 -4 -12 5 -15 48 -17 41 -1 54 2
59 15 4 9 3 20 0 23 -4 3 -8 1 -11 -4 -5 -15 -74 -6 -91 11 -8 8 -12 30 -10
56 3 36 8 45 36 61 27 16 38 17 57 9 20 -9 23 -9 18 3 -7 19 62 20 137 3z
m-349 -211 c-8 -8 -11 -2 -11 19 0 40 14 54 18 19 2 -15 -1 -32 -7 -38z"/>
<path d="M1487 1422 c-20 -22 -22 -36 -4 -27 6 4 1 -3 -12 -15 -15 -13 -21
-24 -14 -28 5 -4 12 -14 15 -22 8 -21 38 52 36 85 -3 30 -1 29 -21 7z"/>
<path d="M1650 1368 c0 -42 25 -108 41 -108 8 0 8 4 2 13 -6 6 -13 34 -16 60
-6 61 -27 88 -27 35z"/>
<path d="M1808 1493 c18 -2 32 -10 32 -17 0 -8 7 -20 17 -27 15 -13 15 -11 -1
19 -14 27 -22 32 -49 30 l-32 -1 33 -4z"/>
<path d="M2741 1354 c-11 -14 -22 -30 -24 -37 -3 -8 -14 -5 -35 11 -38 27 -65
29 -60 5 2 -10 10 -17 16 -15 7 1 11 -4 10 -10 -2 -8 7 -12 25 -11 15 1 26 -1
23 -5 -2 -4 2 -13 10 -20 10 -9 14 -9 14 -1 0 8 4 8 15 -1 12 -10 19 -10 27
-2 7 7 8 15 3 19 -4 5 -10 2 -12 -5 -6 -15 -23 -6 -23 14 0 8 9 14 20 14 22 0
44 34 36 56 -8 21 -22 17 -45 -12z"/>
<path d="M2360 1341 c-13 -9 -13 -11 1 -16 26 -10 244 -1 242 10 -4 13 -223
18 -243 6z"/>
<path d="M2809 1333 c-9 -11 1 -13 55 -13 36 0 66 4 66 9 0 24 -103 27 -121 4z"/>
<path d="M1803 1273 c5 -39 24 -83 37 -83 6 0 9 -4 6 -9 -3 -4 3 -16 13 -25
18 -16 18 -15 11 22 -4 22 -17 53 -28 70 -12 16 -22 35 -22 41 0 6 -4 11 -10
11 -5 0 -8 -12 -7 -27z"/>
<path d="M292 1261 c-9 -5 -11 -17 -6 -37 11 -46 16 -49 30 -14 16 38 17 43 5
35 -5 -3 -11 1 -13 10 -2 9 -8 12 -16 6z"/>
<path d="M370 1259 c-18 -6 -7 -7 35 -4 l60 4 -40 -14 c-22 -7 -38 -14 -35
-15 3 -1 41 -3 85 -4 97 -4 174 -16 181 -27 7 -12 64 -11 64 1 0 6 7 7 18 1
28 -14 85 -32 125 -41 64 -13 56 -23 -15 -17 -38 2 -68 1 -68 -4 0 -5 -58 -8
-129 -6 l-129 2 -12 33 c-6 18 -18 32 -28 32 -13 0 -12 -4 6 -20 18 -17 20
-24 10 -40 -11 -17 -13 -17 -25 -2 -7 9 -13 22 -13 28 0 7 -11 11 -25 10 -23
-1 -24 -2 -8 -13 16 -12 16 -13 -1 -13 -15 0 -16 -3 -6 -15 9 -11 9 -15 1 -15
-6 0 -14 7 -17 15 -4 8 -14 15 -23 15 -14 0 -14 -2 -1 -10 13 -8 12 -10 -2
-10 -10 0 -18 4 -18 9 0 5 -7 12 -16 15 -12 5 -14 1 -9 -17 6 -21 5 -21 -9 -4
-9 12 -16 15 -21 7 -5 -8 -43 -9 -125 -6 -75 4 -121 2 -125 -4 -11 -18 -23
-10 -18 13 4 21 4 21 -8 2 -7 -11 -17 -23 -23 -27 -6 -4 202 -8 463 -8 261 0
477 -2 479 -5 3 -3 11 3 19 13 8 9 12 11 8 5 -5 -10 13 -13 72 -13 43 0 88 -3
101 -6 18 -5 22 -2 22 17 0 22 -4 24 -52 25 -68 1 -110 6 -123 15 -9 6 -207
49 -295 63 -19 3 -75 15 -125 26 -95 21 -163 24 -205 9z"/>
<path d="M2524 1238 c-3 -10 0 -26 6 -38 15 -27 -4 -60 -34 -60 -13 0 -39 -2
-57 -5 -19 -3 -28 -3 -21 1 6 3 12 13 13 22 0 11 2 12 6 5 2 -7 12 -13 21 -13
15 1 15 2 -1 14 -30 23 -107 27 -186 10 -62 -14 -88 -15 -173 -5 -54 6 -124
11 -154 11 l-55 0 3 -32 3 -33 315 3 c173 1 365 3 426 2 94 0 113 3 118 16 4
11 2 15 -8 11 -8 -3 -16 -1 -18 5 -3 7 -25 8 -67 3 -42 -5 -59 -10 -50 -16 11
-7 9 -9 -6 -9 -35 0 -65 12 -65 25 0 8 11 22 24 33 23 17 30 33 27 57 -2 18
-61 12 -67 -7z"/>
<path d="M1922 1238 c-9 -3 73 -7 183 -7 129 0 192 3 177 9 -25 11 -333 9
-360 -2z"/>
<path d="M1233 1167 c-35 -39 -37 -53 -2 -20 18 18 31 35 28 38 -3 3 -15 -5
-26 -18z"/>
<path d="M2821 1161 c-1 -8 -9 -12 -23 -9 -19 4 -23 0 -24 -24 -1 -21 4 -28
17 -28 10 0 30 -15 44 -32 l27 -33 -21 36 c-27 47 -27 49 9 49 17 0 30 5 30
11 0 6 -9 8 -20 4 -15 -5 -22 -1 -29 17 -6 13 -10 17 -10 9z"/>
<path d="M1825 1099 c3 -24 0 -29 -11 -25 -8 3 -21 9 -30 13 -11 4 -15 2 -12
-7 2 -7 21 -19 43 -27 39 -13 61 -9 35 7 -10 7 -11 10 -2 10 15 0 16 32 0 48
-20 20 -27 14 -23 -19z"/>
<path d="M1235 1090 c-16 -16 -26 -33 -22 -37 10 -10 59 16 52 27 -4 6 -1 17
5 25 23 28 -6 15 -35 -15z"/>
<path d="M2873 1094 c-9 -4 -9 -13 -2 -32 7 -18 7 -28 0 -30 -19 -6 -12 -32 9
-32 11 0 20 -5 20 -11 0 -5 4 -8 9 -5 5 4 12 0 14 -6 3 -8 6 -5 6 5 1 11 -8
21 -19 24 -19 5 -23 18 -23 76 0 9 0 17 -1 16 0 0 -6 -3 -13 -5z"/>
<path d="M46 1074 c-5 -13 -4 -14 7 -6 10 9 18 8 32 -2 23 -16 10 -40 -18 -32
-14 3 -17 2 -9 -6 11 -11 1 -37 -25 -65 -16 -18 -21 -16 -26 10 -3 16 -5 13
-6 -10 -1 -25 2 -31 14 -27 19 8 19 -10 0 -26 -17 -14 -20 -30 -6 -30 5 0 13
9 16 20 9 29 85 64 85 39 0 -6 5 -7 10 -4 5 3 10 -3 10 -14 0 -11 -5 -23 -10
-26 -6 -3 -10 -1 -10 4 0 16 -28 13 -37 -3 -5 -8 -19 -20 -33 -26 -24 -10 -24
-10 5 -4 16 3 32 9 35 12 4 6 42 8 75 3 6 0 19 -14 28 -31 l18 -30 -28 6 c-20
4 -46 -3 -88 -25 -33 -17 -65 -31 -72 -31 -7 0 -13 -8 -13 -18 0 -15 9 -19 52
-21 28 -1 56 -5 61 -8 6 -3 7 -1 3 5 -4 7 -1 12 6 13 7 0 3 5 -9 11 -28 14
-29 24 -3 38 14 7 20 7 20 0 0 -5 4 -10 10 -10 5 0 7 8 4 18 -5 14 -4 14 4 3
7 -10 7 -21 1 -33 -9 -16 -8 -16 21 0 16 9 28 22 25 29 -2 7 0 15 5 18 11 7 8
80 -3 91 -4 4 -7 -1 -7 -10 0 -12 -5 -16 -16 -12 -9 3 -18 6 -20 6 -2 0 -4 5
-4 11 0 5 4 8 9 4 6 -3 8 4 6 16 -4 18 -1 20 18 15 12 -3 29 -6 37 -6 12 0 12
-2 2 -9 -11 -6 -10 -11 3 -25 10 -9 19 -15 22 -13 5 6 -24 77 -32 77 -3 0 -4
-4 -1 -8 6 -11 -89 -3 -121 9 -32 12 -29 37 5 45 35 9 94 53 86 65 -3 6 -15
-2 -26 -16 -11 -14 -23 -24 -26 -21 -2 3 1 12 7 20 10 12 9 14 -8 9 -14 -3
-23 0 -27 11 -8 21 -50 21 -58 0z"/>
<path d="M424 1066 c-7 -31 -36 -35 -55 -6 -14 19 -15 19 -38 1 -20 -15 -22
-21 -12 -39 12 -22 -1 -32 -14 -12 -4 6 -10 8 -15 5 -5 -3 -11 -1 -15 5 -7 12
-25 4 -25 -11 0 -5 11 -7 25 -5 13 3 27 2 29 -2 6 -10 -25 -82 -35 -82 -5 0
-9 -7 -9 -15 0 -8 3 -14 8 -14 18 3 26 -2 14 -9 -9 -6 -10 -20 -3 -55 4 -25 5
-49 1 -54 -5 -4 -10 -17 -13 -28 -4 -15 -5 -13 -6 8 -2 41 -26 33 -44 -15 -18
-45 -14 -64 8 -35 13 18 38 21 162 15 58 -2 73 0 77 12 2 8 4 5 5 -7 1 -30 21
-30 21 0 0 13 5 28 11 34 8 8 8 13 0 17 -6 4 -11 3 -11 -3 0 -16 -55 -41 -88
-41 -30 0 -48 16 -72 62 -10 22 -16 25 -27 17 -8 -8 -13 -8 -13 -1 0 6 14 22
31 36 17 15 24 26 16 26 -8 0 -22 9 -32 20 -25 27 -11 67 33 96 32 22 32 22
83 3 37 -13 57 -15 70 -9 23 13 39 13 39 0 0 -6 -11 -15 -24 -20 -13 -5 -28
-15 -33 -23 -4 -7 -16 -16 -26 -20 -15 -6 -16 -4 -6 16 12 21 11 21 -6 7 -17
-14 -18 -13 -11 5 5 15 4 17 -4 9 -33 -32 21 -72 57 -42 12 9 15 10 9 1 -4 -7
-2 -13 3 -13 11 0 15 13 12 40 -1 12 0 12 7 2 7 -10 14 -11 35 -1 21 9 30 9
42 -1 13 -11 18 -10 29 5 8 11 20 16 29 12 12 -4 14 -2 10 11 -3 9 -3 14 2 10
4 -4 16 -3 25 2 13 7 21 5 30 -5 11 -13 15 -11 32 10 11 14 29 25 40 25 11 0
26 7 32 15 13 17 51 25 51 10 0 -5 -5 -9 -11 -9 -8 1 -8 -6 -1 -27 16 -40 -7
-79 -45 -79 -21 0 -28 5 -28 19 0 23 29 51 31 30 1 -8 1 -18 0 -22 -1 -5 4 -7
11 -5 15 5 24 48 10 48 -6 0 -17 3 -26 6 -11 4 -16 1 -16 -11 0 -9 -4 -13 -10
-10 -6 4 -10 -6 -11 -22 0 -15 -3 -22 -6 -15 -8 20 -20 14 -25 -13 -4 -21 -3
-23 13 -15 11 7 20 7 24 1 7 -13 62 -6 80 9 8 6 17 31 20 54 6 40 44 96 64 96
5 0 14 -7 21 -14 9 -11 18 -13 37 -5 21 8 24 7 19 -6 -3 -8 0 -15 7 -15 13 0
67 -46 67 -58 0 -4 -10 -13 -21 -21 -18 -11 -23 -11 -30 0 -4 8 -11 10 -15 6
-4 -3 4 -16 17 -28 l24 -21 -23 6 c-17 3 -22 1 -18 -10 3 -9 -1 -13 -12 -12
-9 1 -28 0 -42 -2 -24 -2 -23 -3 5 -9 21 -4 31 -13 33 -29 4 -26 -19 -30 -42
-6 -20 19 -20 16 -1 -29 8 -21 11 -38 6 -42 -5 -3 -12 4 -16 15 -5 16 -10 18
-25 10 -14 -7 -23 -6 -34 6 -15 14 -16 14 -16 -5 0 -17 6 -21 32 -21 18 0 41
-9 52 -19 29 -27 46 -12 74 64 27 71 83 158 115 180 19 12 22 21 19 51 -3 22
-7 31 -12 24 -4 -7 -13 -9 -19 -5 -8 4 -10 -2 -7 -19 3 -18 0 -26 -9 -26 -8 0
-18 -7 -23 -16 -7 -13 -10 -14 -21 0 -10 12 -9 16 7 25 11 6 22 7 26 3 4 -3 4
2 0 11 -5 15 -17 18 -68 17 -33 -1 -72 0 -85 4 -13 3 -32 1 -41 -4 -10 -6 -20
-7 -23 -2 -2 4 -2 1 -1 -5 2 -7 -1 -13 -6 -13 -6 0 -10 4 -10 8 0 5 -15 8 -34
8 -19 -1 -32 -4 -29 -8 2 -5 -1 -9 -6 -9 -6 -1 -17 -2 -23 -3 -7 -1 -12 -8
-10 -15 1 -7 -2 -10 -8 -6 -5 3 -10 1 -10 -5 0 -6 -4 -8 -10 -5 -5 3 -10 1
-10 -5 0 -7 -6 -10 -14 -7 -8 3 -17 1 -20 -6 -3 -7 -3 -2 0 11 3 13 0 29 -6
37 -14 17 -55 21 -45 5 4 -6 -5 -9 -20 -8 -17 2 -24 7 -20 17 5 12 3 12 -11 0
-15 -12 -14 -15 12 -26 16 -7 22 -12 14 -13 -13 0 -13 -2 -1 -9 8 -5 11 -16 8
-26 -4 -9 -12 -13 -18 -10 -5 4 -17 -1 -24 -11 -8 -11 -15 -14 -15 -8 0 6 7
17 15 24 21 17 19 29 -5 23 -10 -3 -22 -14 -25 -24 -10 -30 -25 -22 -25 12 0
17 -6 37 -14 45 -21 20 -29 17 -16 -5 13 -26 13 -28 -6 -35 -13 -5 -15 -2 -11
15 3 11 3 19 0 16 -3 -3 -16 -2 -29 3 -30 12 -32 -3 -2 -24 12 -9 18 -19 14
-23 -5 -5 -11 -2 -13 5 -3 6 -10 9 -16 5 -7 -3 -9 -3 -5 2 4 4 3 14 -3 21 -7
9 -7 19 1 34 8 15 9 25 1 33 -7 7 -12 2 -17 -17z m-69 -16 c-3 -5 0 -10 8 -10
8 0 20 -7 27 -15 11 -13 9 -15 -9 -12 -13 2 -27 10 -32 18 -7 12 -9 12 -9 0 0
-8 -3 -11 -6 -8 -4 4 -1 13 6 22 14 17 25 20 15 5z m338 -12 c6 -21 -4 -48
-19 -48 -14 0 -20 41 -7 53 10 11 21 8 26 -5z"/>
<path d="M2303 1067 c10 -21 15 -23 35 -16 28 11 33 11 30 2 -5 -19 26 -81 39
-76 7 3 13 -1 13 -8 1 -8 9 -4 22 11 21 24 21 24 15 3 -3 -13 -1 -23 4 -23 5
0 9 11 9 25 0 28 -12 32 -30 10 -11 -14 -14 -13 -25 2 -16 21 -8 50 15 56 12
3 17 0 14 -8 -3 -7 4 -15 16 -18 15 -4 20 -2 16 8 -7 20 47 2 73 -24 25 -25
51 -28 51 -5 0 8 -4 12 -10 9 -12 -7 -52 13 -46 24 6 9 -30 41 -38 34 -3 -4
-6 -1 -6 5 0 7 -8 12 -17 11 -11 0 -13 -3 -5 -6 6 -2 12 -8 12 -12 0 -12 -171
-3 -186 9 -10 9 -11 7 -1 -13z"/>
<path d="M2575 1063 c9 -37 11 -38 37 -21 13 8 29 13 36 10 9 -3 6 -8 -10 -16
-13 -6 -24 -22 -26 -36 -2 -14 -11 -31 -20 -37 -14 -12 -13 -13 6 -13 26 0 25
-18 -2 -43 -11 -9 -16 -20 -12 -25 4 -4 13 0 19 8 13 16 47 37 112 70 22 11
32 20 23 20 -10 0 -18 4 -18 8 0 5 -11 15 -25 22 -18 10 -22 16 -13 22 10 6
10 8 1 8 -7 0 -13 4 -13 10 0 5 6 7 13 4 7 -2 24 -1 37 4 18 7 12 9 -31 9 -30
1 -59 -3 -65 -8 -6 -5 -16 -1 -24 11 -21 29 -33 25 -25 -7z m125 -75 c0 -4 0
-11 0 -15 0 -5 -6 -8 -12 -8 -7 0 -19 -8 -26 -17 -7 -10 -18 -18 -23 -18 -5 0
-9 8 -7 18 2 10 -2 16 -10 14 -14 -3 -9 9 16 39 12 14 20 15 38 7 13 -6 24
-15 24 -20z"/>
<path d="M210 1071 c0 -6 5 -13 10 -16 6 -3 10 -21 10 -40 0 -39 15 -85 28
-85 8 0 32 43 32 56 0 3 -9 0 -19 -6 -30 -15 -32 -13 -29 31 1 32 5 39 19 36
20 -5 49 10 49 26 0 7 -4 6 -10 -3 -8 -12 -12 -13 -19 -2 -4 8 -12 14 -16 14
-4 0 -12 -6 -16 -14 -7 -10 -9 -10 -9 0 0 6 -7 12 -15 12 -8 0 -15 -4 -15 -9z"/>
<path d="M747 1064 c3 -8 -1 -14 -11 -14 -9 0 -16 -8 -16 -17 0 -12 3 -14 8
-7 4 7 16 13 26 15 27 5 31 25 7 32 -14 3 -18 1 -14 -9z"/>
<path d="M2137 1059 c-3 -12 -10 -18 -16 -15 -16 10 -23 -12 -10 -35 7 -14 7
-19 0 -15 -19 12 -53 -13 -46 -35 5 -13 -1 -26 -17 -39 -13 -11 -17 -19 -10
-20 6 0 12 5 12 11 0 5 5 7 10 4 6 -4 8 -10 5 -15 -8 -13 6 -41 17 -34 19 12
28 -19 10 -33 -15 -12 -14 -16 16 -43 18 -17 37 -28 42 -25 6 3 -2 17 -17 29
-24 21 -26 26 -13 41 12 15 12 18 -3 26 -9 6 -17 17 -17 24 0 8 -4 15 -10 15
-14 0 -13 37 1 42 8 3 6 10 -5 21 -16 16 -16 17 4 17 12 0 18 -4 15 -10 -13
-21 13 -8 40 20 16 17 35 30 42 30 7 0 13 5 13 10 0 6 -7 10 -16 10 -8 0 -12
5 -9 10 3 6 17 10 31 10 24 0 24 0 9 -32 l-16 -33 20 25 21 25 0 -25 c0 -15
-6 -32 -12 -39 -11 -11 -10 -13 5 -7 10 3 21 6 23 6 2 0 4 12 4 26 0 41 -29
69 -76 72 -35 2 -43 -1 -47 -19z m34 -3 c-6 -8 -10 -20 -9 -27 2 -7 -5 -14
-14 -17 -15 -3 -15 0 -5 27 6 17 18 31 25 31 11 0 12 -3 3 -14z"/>
<path d="M1903 1063 c-19 -7 -16 -40 7 -63 19 -19 19 -20 1 -30 -14 -7 -22 -6
-32 7 -11 13 -11 17 -1 20 6 3 12 9 12 14 0 6 -21 -4 -46 -22 l-46 -31 29 -30
c39 -41 62 -53 77 -38 8 8 7 10 -5 5 -12 -4 -16 0 -15 17 2 29 14 48 29 48 7
0 6 -4 -3 -10 -10 -6 -11 -10 -2 -10 22 0 27 2 25 11 -4 13 7 11 20 -4 40 -43
88 -179 92 -261 2 -34 10 -90 17 -126 12 -56 17 -65 36 -65 29 0 39 -17 34
-59 -4 -34 -36 -57 -46 -32 -3 7 -5 7 -5 -1 -1 -7 -7 -13 -15 -13 -8 0 -17 -4
-20 -8 -3 -5 12 -8 32 -6 20 1 45 2 56 3 13 1 16 6 12 17 -5 14 -4 15 8 5 12
-10 13 -9 9 9 -3 11 -9 23 -14 26 -15 9 -10 26 6 20 8 -3 15 0 16 7 0 7 4 2
10 -11 5 -13 6 -36 3 -50 -4 -21 -3 -24 5 -12 9 13 11 12 11 -4 0 -18 2 -18
24 4 15 13 32 20 40 17 24 -9 19 -27 -7 -27 -13 0 -28 -5 -34 -11 -16 -16 -5
-39 18 -39 12 0 16 5 13 15 -4 8 -10 12 -15 9 -5 -3 -9 0 -9 5 0 6 11 11 24
11 43 0 73 17 78 44 6 28 1 31 -22 16 -10 -6 -11 -10 -2 -10 6 0 12 -5 12 -11
0 -12 -43 -1 -48 12 -2 5 -12 9 -23 9 -10 0 -19 6 -20 13 0 6 -5 1 -11 -13
-10 -24 -10 -24 -18 -5 -5 11 -9 23 -9 26 -2 16 40 50 77 63 39 14 42 14 66
-9 21 -19 24 -30 21 -69 -2 -25 -2 -46 -1 -46 2 0 20 7 41 16 26 10 35 20 31
30 -3 9 -6 18 -6 20 0 3 -9 0 -21 -6 -28 -15 -37 -5 -10 12 20 12 29 29 14 27
-22 -3 -54 15 -49 27 3 8 2 14 -2 14 -15 0 -112 92 -106 101 3 5 1 9 -4 9 -5
0 -9 6 -10 13 0 6 -3 23 -6 35 -4 17 2 30 21 48 14 13 30 21 36 17 6 -4 7 -1
3 6 -5 7 -11 10 -14 7 -7 -7 -32 13 -32 26 0 6 8 4 18 -3 9 -7 14 -9 9 -4 -4
4 1 17 10 28 10 11 14 18 8 15 -5 -2 -27 -12 -47 -22 -25 -11 -35 -21 -32 -31
4 -8 1 -15 -5 -15 -7 0 -7 -8 -1 -26 13 -33 13 -34 -7 -35 -14 0 -12 -3 5 -10
13 -5 21 -13 18 -18 -7 -11 21 -80 42 -104 14 -16 14 -19 2 -28 -8 -5 -21 -7
-28 -4 -8 3 -17 -7 -24 -26 -6 -18 -15 -28 -24 -25 -7 3 -14 0 -17 -7 -6 -20
-75 45 -77 73 0 14 -7 51 -14 82 -11 46 -11 60 -1 74 7 10 18 14 26 10 8 -4 5
0 -5 8 -11 9 -26 16 -33 16 -17 0 -17 17 0 23 10 4 10 6 0 6 -18 1 -16 21 2
21 22 0 19 17 -4 23 -11 2 -27 19 -36 37 -17 32 -17 33 4 27 29 -7 26 7 -4 21
-14 6 -25 18 -25 26 0 8 -9 18 -20 21 -11 3 -20 11 -20 16 0 5 -8 9 -17 9 -16
1 -16 2 2 16 16 13 17 15 3 12 -9 -2 -16 2 -15 7 1 6 7 9 14 7 7 -2 13 3 13
10 0 8 5 6 11 -5 5 -9 8 -20 6 -25 -3 -4 12 -7 32 -8 36 0 53 14 79 69 10 20
-16 4 -28 -18 -7 -14 -16 -23 -18 -20 -3 3 -12 -1 -20 -8 -13 -10 -14 -8 -8
13 l7 25 -14 -24 c-14 -23 -15 -23 -25 -5 -6 11 -22 18 -39 19 -21 0 -27 4
-25 18 2 9 2 17 0 16 -2 0 -9 -3 -15 -6z"/>
<path d="M1930 1054 c0 -14 3 -14 15 -4 13 10 19 10 35 -5 19 -18 20 -17 20 6
0 17 -3 20 -9 10 -6 -9 -11 -10 -15 -2 -11 17 -46 13 -46 -5z"/>
<path d="M2739 1049 c-13 -9 -28 -15 -33 -12 -5 3 -6 1 -2 -6 6 -9 11 -9 22 0
11 9 14 8 14 -5 0 -9 5 -16 10 -16 6 0 14 -9 18 -20 7 -19 8 -19 35 5 27 26
35 59 17 70 -6 4 -10 3 -9 -2 3 -16 -2 -38 -11 -53 -8 -13 -11 -12 -24 5 -21
27 -20 33 7 37 22 3 22 4 1 9 -13 4 -30 -1 -45 -12z"/>
<path d="M2277 1053 c-11 -11 -8 -63 4 -63 6 0 8 9 4 20 -9 29 4 25 15 -5 8
-21 14 -24 36 -19 24 6 25 5 15 -15 -12 -22 -5 -27 18 -12 9 6 11 15 6 27 -5
11 -7 22 -7 27 3 12 -8 8 -26 -10 -16 -15 -18 -14 -31 20 -14 37 -21 43 -34
30z"/>
<path d="M930 1041 c0 -6 5 -11 10 -11 6 0 10 -5 10 -10 0 -7 -6 -7 -19 0 -14
7 -22 7 -27 -2 -4 -6 -2 -14 4 -16 7 -2 12 -8 12 -14 0 -6 -6 -8 -14 -5 -10 4
-17 -9 -24 -46 -6 -29 -8 -54 -6 -56 2 -2 7 10 10 28 5 22 14 33 30 37 13 3
21 10 18 15 -7 13 15 51 27 44 5 -4 8 4 6 17 -4 23 -37 40 -37 19z"/>
<path d="M1750 1035 c-8 -9 -22 -14 -32 -11 -11 2 -22 -2 -25 -10 -3 -8 -10
-14 -17 -13 -27 3 -47 -2 -41 -10 3 -6 -9 -12 -27 -15 -70 -11 -97 -12 -92 -4
3 4 -2 8 -11 8 -9 0 -14 -4 -11 -8 6 -11 -92 2 -126 16 -46 19 -31 2 17 -19
33 -15 68 -20 138 -21 92 -1 104 2 200 50 5 2 -1 -14 -12 -37 -12 -22 -21 -47
-21 -55 0 -8 -5 -18 -12 -22 -7 -5 -9 -1 -6 12 5 18 -2 19 -111 20 -64 0 -92
-2 -63 -3 37 -3 52 -8 52 -19 0 -7 9 -14 20 -14 11 0 20 7 20 15 0 10 10 15
30 15 l30 0 0 -231 0 -230 -57 1 c-76 2 -81 1 -63 -10 8 -5 36 -10 63 -10 26
0 47 -4 47 -10 0 -5 5 -10 11 -10 5 0 7 5 4 10 -3 6 -1 10 5 10 6 0 13 -7 16
-15 4 -8 17 -15 31 -15 13 0 21 4 18 10 -3 5 -15 10 -25 10 -13 0 -22 9 -26
28 -3 15 -7 33 -10 40 -4 14 8 16 21 3 6 -5 24 -11 40 -13 17 -3 25 -3 20 -1
-6 2 -9 23 -7 46 2 23 0 38 -5 32 -11 -14 -47 -19 -38 -6 3 6 1 11 -4 11 -6 0
-11 -5 -11 -12 0 -6 -3 -9 -6 -5 -3 3 -3 15 1 28 4 13 10 17 14 11 4 -6 16 -9
28 -6 20 6 20 7 -8 57 -31 56 -34 73 -19 97 7 12 12 12 22 2 9 -9 9 -12 0 -12
-19 0 23 -76 76 -137 44 -50 73 -65 87 -43 6 10 -7 14 -32 11 -18 -2 -28 68
-13 93 12 19 12 20 -4 7 -33 -28 -32 -3 10 149 12 43 -10 11 -30 -43 -10 -29
-18 -74 -17 -102 2 -44 0 -48 -13 -35 -8 8 -21 38 -27 65 -15 58 -26 76 -43
69 -18 -7 -18 79 -1 148 8 32 26 76 40 99 27 41 29 63 5 34z m-50 -426 c7 -13
5 -15 -14 -12 -18 4 -22 10 -18 30 5 25 8 24 32 -18z m22 -119 c-3 -3 -7 1 -9
8 -3 6 -12 12 -21 12 -14 1 -14 3 3 16 18 14 20 13 26 -8 3 -13 4 -25 1 -28z"/>
<path d="M1335 1029 c-4 -6 -4 -13 -1 -16 3 -4 6 -1 6 6 0 9 5 9 21 1 24 -13
41 -4 19 10 -20 13 -37 12 -45 -1z"/>
<path d="M987 1010 c-3 -11 0 -20 6 -20 7 -1 6 -5 -3 -13 -8 -7 -15 -19 -15
-27 0 -8 -7 -15 -15 -15 -8 0 -25 -10 -37 -22 l-23 -23 21 -21 c20 -20 21 -20
15 -1 -5 15 1 26 21 41 48 36 53 41 59 66 4 15 0 30 -9 39 -13 14 -15 13 -20
-4z"/>
<path d="M2834 1005 c-4 -14 -4 -29 -1 -32 11 -10 57 -12 57 -1 0 5 -10 8 -22
6 -20 -3 -23 1 -20 25 3 34 -6 35 -14 2z"/>
<path d="M1287 975 c3 -27 10 -59 14 -70 4 -11 5 2 2 30 -3 28 -10 59 -14 70
-4 11 -5 -2 -2 -30z"/>
<path d="M367 963 c4 -11 3 -14 -5 -9 -8 5 -10 1 -5 -11 5 -14 4 -16 -8 -8 -8
6 -7 3 3 -7 10 -9 18 -22 18 -29 0 -7 -11 -2 -26 12 -25 24 -32 8 -7 -18 14
-15 59 -17 68 -3 3 6 1 10 -5 10 -7 0 -9 10 -6 28 5 20 2 30 -13 39 -17 11
-19 10 -14 -4z"/>
<path d="M2273 966 c2 -6 11 -10 21 -8 9 2 16 -4 16 -13 0 -9 -4 -13 -10 -10
-5 3 -10 -2 -10 -12 0 -11 -6 -25 -12 -32 -11 -10 -10 -11 5 -6 9 4 17 12 17
19 0 6 4 4 10 -4 5 -8 12 -11 15 -8 4 4 3 12 -1 20 -4 7 -8 24 -8 38 -1 19 -7
25 -24 26 -13 1 -21 -4 -19 -10z"/>
<path d="M683 949 c3 -12 -2 -20 -14 -24 -11 -4 -17 -10 -15 -14 3 -4 -13 -18
-34 -32 -29 -17 -43 -34 -50 -61 -12 -43 -32 -48 -54 -16 -9 12 -16 17 -16 10
0 -7 11 -25 25 -40 14 -15 23 -33 20 -40 -3 -8 -5 -22 -5 -33 0 -10 -4 -19
-10 -19 -5 0 -10 12 -10 27 0 26 -1 26 -14 8 -21 -29 -3 -52 44 -60 22 -4 48
-14 57 -23 9 -10 18 -16 20 -14 10 9 61 -34 71 -60 11 -29 11 -29 37 -12 34
22 39 15 15 -21 -11 -17 -20 -24 -20 -16 0 11 -3 11 -15 1 -16 -13 -21 -45 -6
-36 5 3 12 -2 15 -11 7 -17 -9 -32 -34 -33 -13 0 -13 -1 0 -10 12 -8 11 -10
-6 -10 -29 0 -37 11 -17 25 9 7 17 21 18 31 1 11 5 30 9 43 6 16 5 21 -3 17
-6 -4 -11 -1 -11 6 -1 27 -28 -39 -35 -86 -4 -27 -14 -60 -22 -72 -8 -13 -13
-29 -10 -36 4 -9 6 -8 6 3 1 20 31 48 31 30 0 -7 -6 -24 -14 -40 -14 -26 -13
-28 15 -45 28 -17 29 -16 29 3 0 10 5 21 12 23 7 3 3 12 -10 24 -14 13 -19 27
-15 42 6 25 7 26 35 11 17 -9 19 -8 16 8 -5 24 21 53 48 53 12 0 34 -10 48
-21 23 -18 29 -19 39 -8 7 8 8 11 3 7 -6 -5 -15 -8 -20 -8 -6 0 8 19 29 42
l40 42 -41 -32 c-23 -18 -45 -32 -48 -32 -12 0 -5 33 12 58 45 65 39 73 -7 10
-23 -31 -38 -42 -63 -45 -18 -1 -28 0 -22 5 12 8 44 75 44 91 0 6 12 11 26 11
24 0 25 -2 13 -17 -8 -9 0 -7 19 7 40 29 40 46 2 87 -33 35 -78 53 -89 35 -3
-6 -20 -16 -36 -22 -28 -11 -28 -13 -10 -20 11 -5 34 -9 50 -9 17 1 24 3 17 6
-18 7 -4 23 20 23 14 0 18 -5 14 -15 -3 -8 -2 -14 2 -12 4 1 8 -2 9 -7 1 -5 7
-13 15 -18 9 -6 6 -7 -9 -3 -14 4 -23 2 -23 -4 0 -6 -18 -11 -39 -11 -22 0
-41 -3 -44 -7 -2 -5 -3 -3 -1 3 1 6 -7 16 -17 22 -10 7 -19 18 -19 26 0 8 -17
21 -37 29 -48 19 -70 43 -76 85 -5 28 0 39 33 74 31 32 45 39 65 36 20 -4 25
-1 25 14 0 10 7 21 15 24 10 4 12 10 7 18 -5 6 -8 20 -6 32 2 13 -2 21 -12 21
-10 0 -14 -7 -11 -18z m-14 -641 c-8 -14 -14 -17 -22 -9 -7 7 -6 15 3 25 17
22 32 9 19 -16z"/>
<path d="M2164 958 c-4 -6 1 -17 10 -23 15 -11 15 -13 1 -19 -10 -4 -14 -14
-11 -31 3 -14 1 -25 -4 -25 -4 0 -11 -8 -14 -17 -5 -13 0 -11 19 7 16 15 24
32 22 42 -3 11 0 18 9 18 21 0 17 18 -7 25 -16 5 -18 10 -8 21 7 9 8 14 1 14
-6 0 -14 -5 -18 -12z"/>
<path d="M2365 922 l-29 -24 30 6 c25 5 32 2 49 -23 10 -16 23 -27 28 -24 4 2
14 -1 22 -7 12 -10 15 -9 15 9 0 15 -6 22 -17 20 -31 -3 -36 1 -23 16 10 12
10 15 0 15 -7 0 -10 6 -7 14 10 26 -38 24 -68 -2z"/>
<path d="M2875 935 c-22 -8 -38 -14 -35 -15 35 -10 68 -5 78 11 14 22 12 22
-43 4z"/>
<path d="M1213 928 c-23 -30 -27 -43 -7 -26 19 16 20 16 20 0 0 -9 4 -45 8
-79 4 -35 5 -63 2 -63 -12 0 -45 79 -51 124 -6 38 -10 45 -17 32 -11 -19 4
-73 35 -126 19 -33 30 -90 18 -90 -3 0 -12 10 -20 21 -11 19 -11 21 3 16 13
-5 14 -3 4 13 -8 13 -15 15 -19 8 -4 -6 -12 7 -18 30 -15 55 -25 59 -50 18
-22 -34 -57 -136 -42 -120 5 5 14 26 21 48 11 34 41 76 55 76 3 0 5 -8 5 -17
0 -10 10 -34 22 -53 11 -19 24 -46 28 -60 6 -24 7 -24 24 13 31 64 12 277 -21
235z"/>
<path d="M2911 890 c-18 -27 -37 -50 -43 -50 -6 0 -3 12 7 26 17 26 15 41 -4
29 -6 -3 -11 -15 -11 -25 0 -10 -4 -22 -10 -25 -5 -3 -10 -13 -10 -22 0 -11 3
-13 13 -5 29 24 56 17 102 -28 32 -31 45 -39 45 -27 0 9 -4 17 -10 17 -5 0
-10 5 -10 11 0 5 5 7 10 4 6 -3 10 -2 10 2 0 5 -16 17 -35 27 -19 10 -32 23
-28 29 4 6 0 8 -10 4 -13 -5 -14 -2 -5 24 5 16 14 30 19 30 5 1 14 3 19 4 6 1
13 3 18 4 7 1 -19 21 -29 21 -3 0 -20 -22 -38 -50z"/>
<path d="M2220 912 c0 -10 9 -27 20 -37 18 -16 20 -16 20 -2 0 10 -6 16 -12
15 -7 -2 -12 5 -10 14 1 9 -2 19 -8 23 -5 3 -10 -2 -10 -13z"/>
<path d="M1403 904 c-7 -19 2 -28 22 -21 19 8 19 23 0 31 -9 3 -18 -1 -22 -10z"/>
<path d="M526 902 c-9 -15 18 -32 42 -25 12 3 22 12 22 19 0 17 -26 19 -36 3
-5 -8 -9 -8 -14 1 -5 8 -10 8 -14 2z"/>
<path d="M1762 870 c-16 -52 -15 -73 3 -117 21 -51 27 -37 8 18 -15 42 -15 48
1 85 9 21 14 28 11 14 -2 -14 -7 -36 -10 -50 -3 -14 1 -7 10 14 14 37 13 76
-3 76 -4 0 -13 -18 -20 -40z"/>
<path d="M220 855 c0 -18 4 -22 20 -18 11 3 20 11 20 18 0 7 -9 15 -20 18 -16
4 -20 0 -20 -18z"/>
<path d="M90 863 c-52 -9 -90 -25 -90 -39 0 -12 5 -11 28 3 l27 17 -20 -24
c-18 -22 -16 -22 11 3 16 15 40 27 51 27 12 0 25 5 28 10 3 6 3 9 -2 9 -4 -1
-19 -4 -33 -6z"/>
<path d="M1329 727 c-4 -134 0 -173 14 -150 3 5 2 73 -2 153 l-7 145 -5 -148z"/>
<path d="M1923 863 c-7 -2 -13 -11 -13 -19 0 -8 6 -11 15 -8 10 4 15 0 15 -12
0 -16 1 -16 14 2 21 28 1 51 -31 37z"/>
<path d="M341 836 c-9 -11 -6 -17 19 -27 23 -11 26 -15 14 -19 -15 -6 -14 -8
2 -25 18 -17 19 -18 22 -1 3 14 10 16 30 12 21 -5 24 -4 12 5 -12 9 -11 10 7
6 12 -3 27 1 34 9 6 8 10 14 8 15 -34 7 -59 8 -57 2 2 -4 -1 -8 -7 -8 -5 0 -9
3 -7 8 1 4 -4 7 -12 7 -7 0 -19 7 -26 15 -15 19 -24 19 -39 1z"/>
<path d="M650 835 c0 -1 14 -14 30 -30 l30 -29 0 30 c0 27 -3 30 -30 30 -16 0
-30 0 -30 -1z"/>
<path d="M1377 833 c-4 -3 -7 -35 -7 -70 l0 -63 45 0 45 0 0 70 0 70 -38 0
c-21 0 -42 -3 -45 -7z m63 -62 c0 -44 -25 -75 -41 -50 -10 16 -12 73 -2 82 3
4 15 7 25 7 14 0 18 -8 18 -39z"/>
<path d="M1480 827 c0 -8 11 -19 25 -25 23 -11 25 -10 25 13 0 20 -5 25 -25
25 -14 0 -25 -6 -25 -13z"/>
<path d="M1873 825 c-9 -9 -9 -15 -1 -17 8 -3 8 -9 0 -23 -6 -11 -19 -38 -28
-60 -10 -22 -19 -43 -21 -47 -2 -5 3 -8 12 -8 9 0 14 4 11 9 -3 4 3 16 14 26
13 11 20 31 20 52 0 21 4 32 10 28 6 -4 17 -1 25 5 12 10 15 10 15 0 0 -8 2
-11 5 -8 3 3 3 13 -1 22 -6 15 -7 15 -20 -1 -11 -14 -14 -15 -13 -3 4 41 -6
50 -28 25z"/>
<path d="M2430 821 c-5 -10 -20 -21 -34 -25 -13 -3 -38 -20 -55 -37 -25 -25
-29 -34 -21 -50 7 -13 7 -25 0 -38 -13 -25 -13 -34 0 -26 6 4 10 -5 10 -19 0
-35 -5 -33 -36 14 -15 22 -31 40 -35 40 -10 0 10 -41 26 -52 6 -4 6 -8 2 -8
-11 0 41 -43 70 -59 12 -6 39 -10 60 -9 34 1 35 2 7 5 -42 6 -88 74 -79 121 4
24 2 34 -9 38 -9 3 -13 10 -10 16 3 5 13 7 21 4 8 -3 11 -1 8 4 -9 15 23 24
39 11 10 -9 16 -9 21 -1 4 6 1 9 -6 8 -7 -2 -14 6 -16 17 -3 15 -2 17 5 6 8
-11 10 -11 15 0 4 11 6 11 6 1 1 -10 6 -10 21 -2 11 6 20 9 20 7 0 -3 17 1 37
8 25 9 44 10 55 4 16 -9 16 -12 -4 -44 -16 -28 -23 -33 -34 -25 -7 7 -14 20
-16 30 -2 15 -7 17 -18 10 -12 -7 -9 -14 18 -38 17 -16 32 -34 32 -39 0 -6 7
-13 15 -17 13 -5 14 -2 4 16 -10 18 -8 24 11 40 12 10 28 18 35 18 25 0 34
-65 14 -102 -6 -11 -8 -22 -5 -25 3 -3 9 5 14 17 6 15 11 19 16 12 5 -9 13 -9
27 -2 18 10 18 13 4 41 -9 16 -20 27 -24 24 -5 -3 -12 2 -15 11 -5 13 -2 15
14 11 15 -4 20 0 20 14 0 21 -26 26 -32 7 -2 -6 -10 -8 -17 -4 -9 6 -9 11 1
24 8 9 8 13 1 9 -16 -10 -40 2 -46 23 -4 14 -13 17 -43 15 -22 -1 -49 1 -61 6
-17 6 -25 4 -33 -10z"/>
<path d="M625 794 c20 -16 20 -16 -2 -10 -21 7 -41 -9 -28 -22 4 -4 10 -1 12
5 3 9 10 10 23 3 13 -7 18 -6 16 3 -3 20 -16 37 -29 37 -7 0 -3 -8 8 -16z"/>
<path d="M2697 795 c-7 -17 8 -29 25 -19 7 4 8 3 4 -4 -5 -8 0 -12 13 -12 13
0 21 6 21 18 0 14 -2 15 -10 2 -8 -13 -10 -13 -10 1 0 9 -7 20 -16 23 -21 8
-21 8 -27 -9z"/>
<path d="M2802 781 c3 -22 8 -25 51 -27 52 -2 57 3 27 29 -24 20 -34 22 -24 5
6 -10 4 -10 -8 0 -13 10 -17 10 -21 0 -4 -10 -8 -10 -17 2 -9 12 -10 11 -8 -9z"/>
<path d="M2770 766 c0 -14 5 -28 10 -31 6 -4 10 7 10 24 0 17 -4 31 -10 31 -5
0 -10 -11 -10 -24z"/>
<path d="M189 763 c-1 -5 -1 -11 0 -15 0 -4 -5 -5 -12 -2 -7 2 -22 -4 -32 -16
-10 -11 -13 -20 -7 -20 6 0 16 -2 24 -5 12 -5 48 40 48 59 0 9 -20 7 -21 -1z"/>
<path d="M590 739 c0 -5 10 -9 23 -7 12 2 21 -2 20 -8 -1 -7 6 -10 18 -7 18 5
20 3 14 -16 -4 -13 -2 -21 5 -21 17 0 8 54 -10 62 -24 11 -70 9 -70 -3z"/>
<path d="M994 738 c-5 -7 -7 -27 -5 -45 2 -27 -3 -36 -31 -53 -18 -11 -43 -20
-54 -20 -31 0 -39 -47 -11 -56 11 -4 34 -15 51 -26 29 -19 23 -20 -24 -6 -8 3
-12 3 -7 1 4 -3 7 -11 7 -18 0 -7 7 -16 16 -19 8 -3 12 -10 9 -16 -3 -5 -1
-10 4 -10 6 0 11 -7 11 -15 0 -8 3 -15 8 -15 4 0 7 -13 7 -29 0 -16 -2 -28 -5
-26 -3 2 -12 0 -20 -6 -13 -7 -13 -9 -1 -9 11 0 10 -5 -4 -20 -18 -19 -17 -20
3 -20 17 0 25 11 39 57 14 43 15 57 5 61 -7 2 -10 8 -7 13 3 5 8 45 10 90 3
44 8 85 11 90 3 5 7 32 9 59 4 48 -5 64 -21 38z m-34 -133 c-6 -8 -9 -19 -6
-24 4 -5 2 -12 -4 -16 -5 -3 -10 -1 -10 5 0 6 -4 8 -10 5 -17 -11 -32 5 -19
21 6 7 15 12 19 9 5 -3 11 -1 15 5 3 5 11 10 17 10 7 0 6 -5 -2 -15z"/>
<path d="M752 729 c2 -7 11 -14 19 -15 39 -8 60 -13 69 -19 15 -9 12 11 -2 22
-21 17 -91 26 -86 12z"/>
<path d="M1291 731 c-1 -8 -13 -32 -27 -53 -29 -42 -27 -56 5 -38 12 6 26 8
31 5 6 -3 10 -1 10 4 0 6 -8 11 -17 11 -17 1 -17 1 -1 14 13 10 15 19 8 42 -4
16 -9 22 -9 15z"/>
<path d="M2871 708 c-1 -37 -14 -50 -24 -25 -3 6 -6 2 -6 -11 -1 -20 -3 -21
-23 -11 -20 11 -21 10 -11 -3 7 -8 10 -18 6 -21 -13 -14 11 -6 42 13 19 11 37
20 42 19 4 -1 21 -1 36 0 23 1 26 4 19 19 -5 9 -7 23 -5 30 3 6 -3 12 -12 12
-11 0 -15 -6 -10 -19 6 -21 -15 -43 -32 -33 -6 4 -13 21 -16 37 -4 27 -4 27
-6 -7z"/>
<path d="M2265 714 c-13 -14 -14 -19 -3 -25 21 -14 26 -11 24 16 -1 30 0 29
-21 9z"/>
<path d="M2711 712 c-1 -24 19 -38 41 -29 8 4 5 8 -9 12 -12 4 -24 14 -26 24
-3 11 -5 8 -6 -7z"/>
<path d="M1106 695 c-9 -13 -16 -34 -16 -45 0 -19 2 -20 15 -6 9 8 14 21 13
28 -2 9 6 12 27 10 29 -3 29 -3 11 17 -24 27 -30 26 -50 -4z"/>
<path d="M2670 717 c0 -15 72 -147 80 -147 13 0 12 14 -2 28 -8 8 -5 14 14 21
15 5 29 14 32 20 10 16 -29 31 -63 25 -25 -5 -30 -4 -26 8 3 8 -3 23 -15 33
-11 10 -20 15 -20 12z"/>
<path d="M2811 704 c11 -13 10 -15 -6 -12 -10 1 -20 -3 -23 -11 -3 -10 2 -11
19 -6 13 4 25 9 27 10 6 5 -11 35 -20 35 -6 0 -5 -7 3 -16z"/>
<path d="M73 682 c23 -23 27 -23 63 -11 l39 12 -30 9 c-16 5 -45 10 -63 11
l-33 3 24 -24z"/>
<path d="M377 703 c-2 -5 -8 -26 -12 -48 -4 -22 -11 -45 -16 -51 -14 -18 1
-76 18 -70 8 4 20 6 28 6 7 0 13 12 13 27 0 15 5 29 11 31 17 6 13 23 -11 49
-12 13 -16 23 -10 23 6 0 18 -10 27 -22 10 -16 18 -19 23 -12 4 7 18 14 30 15
l24 4 -27 25 -27 25 6 -25 c7 -24 6 -24 -9 3 -15 26 -57 38 -68 20z"/>
<path d="M939 689 c-9 -18 -16 -20 -47 -14 -26 5 -34 3 -27 -4 11 -11 35 -15
72 -13 16 2 21 7 16 18 -3 9 0 20 8 25 9 6 10 9 2 9 -7 0 -17 -9 -24 -21z"/>
<path d="M2972 693 c16 -15 16 -17 0 -29 -16 -12 -15 -13 6 -14 17 0 22 6 22
24 0 13 -7 27 -16 30 -26 10 -29 7 -12 -11z"/>
<path d="M285 688 c-11 -7 -29 -12 -40 -13 -11 0 -21 -8 -23 -18 -3 -17 -1
-17 20 -6 23 12 23 11 5 -8 -17 -20 -17 -21 2 -26 16 -4 22 2 31 29 6 19 19
38 28 44 9 5 13 9 7 9 -5 0 -19 -5 -30 -11z"/>
<path d="M170 660 c-7 -16 -16 -27 -21 -25 -4 3 -24 -1 -44 -9 -24 -10 -35
-21 -35 -35 0 -20 15 -29 22 -13 5 12 68 44 68 34 0 -5 -9 -21 -21 -36 -15
-19 -27 -25 -40 -21 -14 5 -17 2 -13 -9 9 -24 17 -20 64 31 28 29 45 57 46 75
3 39 -11 44 -26 8z"/>
<path d="M311 664 c-11 -15 -21 -39 -21 -55 0 -15 -4 -39 -10 -53 -7 -20 -6
-26 5 -26 7 0 16 10 18 23 l4 22 2 -22 c0 -13 5 -23 10 -23 5 0 7 10 4 23 -4
18 -3 20 7 7 10 -13 11 -12 6 3 -3 10 -6 23 -6 28 0 4 -6 6 -13 3 -7 -2 -13 4
-14 16 -1 11 3 20 8 20 6 0 8 4 4 9 -3 5 2 17 11 26 9 9 14 18 11 21 -2 3 -14
-7 -26 -22z"/>
<path d="M1987 679 c-9 -5 -23 -7 -30 -4 -6 4 -4 0 5 -7 15 -13 15 -15 -3 -26
-10 -7 -19 -9 -19 -4 0 14 -69 1 -82 -16 -12 -14 -8 -15 33 -9 59 8 121 37
115 53 -3 7 0 15 7 18 7 2 8 5 2 5 -5 0 -18 -4 -28 -10z"/>
<path d="M19 643 c12 -18 20 -37 17 -41 -3 -5 1 -9 9 -9 8 0 15 5 15 11 0 6 3
21 6 32 5 18 2 21 -18 20 -13 -1 -30 3 -38 8 -8 6 -4 -4 9 -21z"/>
<path d="M1175 641 c-3 -5 5 -11 17 -13 16 -2 24 -11 26 -28 3 -25 1 -25 -40
-21 -41 4 -42 5 -13 12 30 7 30 7 3 8 -15 0 -29 -3 -33 -9 -4 -6 -15 -6 -30 0
-14 5 -25 6 -25 3 0 -4 -5 -2 -12 5 -14 14 -38 16 -38 4 0 -5 19 -15 43 -21
23 -7 48 -18 55 -23 6 -6 12 -7 12 -2 0 5 16 10 36 12 35 2 35 2 32 -35 -2
-25 -8 -37 -16 -35 -10 2 -10 -2 0 -20 7 -13 13 -30 13 -38 0 -8 4 -22 10 -30
5 -8 12 -30 16 -50 5 -21 6 -9 2 30 -3 36 -6 105 -5 155 0 88 -5 104 -35 105
-6 0 -14 -4 -18 -9z"/>
<path d="M2667 639 c-9 -6 -15 -15 -12 -20 4 -5 11 -7 16 -4 5 4 9 -1 9 -9 0
-8 -4 -17 -9 -20 -14 -9 -41 4 -41 19 0 19 -52 -2 -93 -37 -26 -21 -30 -29
-19 -40 10 -10 14 -9 18 8 6 22 42 44 71 44 9 0 25 -7 35 -17 10 -9 18 -11 18
-6 0 6 11 10 24 9 13 0 22 -4 19 -9 -7 -11 25 -39 38 -32 7 5 5 12 -5 24 -8 9
-23 35 -33 58 -15 35 -21 40 -36 32z"/>
<path d="M500 633 c0 -6 5 -15 10 -18 6 -3 10 -11 10 -17 0 -6 -9 -3 -20 7
-11 10 -23 16 -26 12 -3 -3 6 -13 21 -23 14 -9 31 -26 36 -37 11 -19 11 -19
-21 -1 -18 11 -34 25 -37 32 -3 6 -10 12 -15 12 -7 0 -6 -5 1 -14 9 -11 7 -15
-10 -19 -32 -9 -14 -24 35 -29 52 -6 100 -37 123 -81 l17 -32 7 25 c4 14 7 36
8 49 1 20 -1 21 -14 11 -12 -10 -16 -9 -21 4 -3 9 -11 16 -18 16 -16 0 -68 58
-55 62 6 2 3 13 -10 28 -11 14 -20 20 -21 13z"/>
<path d="M547 614 c10 -17 22 -31 28 -32 5 0 12 -9 16 -19 7 -16 8 -16 8 3 1
11 -6 29 -14 40 -9 12 -14 14 -15 5 0 -8 -8 -4 -20 10 l-21 24 18 -31z"/>
<path d="M1578 633 c-50 -4 -56 -13 -39 -57 7 -19 8 -19 13 2 4 14 14 22 30
23 17 1 14 4 -12 9 l-35 8 40 -1 c39 -2 40 -3 43 -41 l3 -38 -45 4 c-32 2 -46
-1 -46 -9 0 -9 17 -13 50 -13 l50 0 0 60 c0 33 -1 59 -2 58 -2 -1 -24 -3 -50
-5z"/>
<path d="M1408 623 c-19 -5 -44 -64 -25 -60 8 1 12 -20 13 -65 1 -69 -2 -78
-24 -56 -7 7 -12 9 -12 4 0 -12 27 -36 34 -29 3 3 12 -10 20 -29 9 -20 23 -38
31 -42 23 -9 25 -8 25 9 0 11 9 14 33 11 17 -2 43 -4 56 -5 19 -1 21 -4 11
-15 -10 -13 -8 -13 14 -3 16 8 21 14 13 19 -7 5 0 8 17 8 16 0 26 -3 23 -6 -3
-4 5 -15 18 -26 13 -10 27 -34 31 -53 3 -19 10 -35 16 -35 5 0 6 4 3 10 -3 5
0 7 9 4 8 -3 17 -12 20 -20 11 -29 36 -2 37 40 0 22 8 61 17 86 16 40 21 45
47 43 l30 -2 -27 10 c-33 13 -37 39 -6 39 17 0 19 3 10 12 -22 22 -13 30 26
24 44 -8 24 8 -25 18 -25 6 -32 4 -35 -11 -3 -13 -10 -7 -27 25 -12 24 -24 42
-27 40 -5 -5 12 -64 26 -90 10 -18 -5 -83 -21 -93 -5 -4 -7 -11 -3 -16 3 -5 0
-16 -6 -24 -7 -8 -9 -24 -5 -36 5 -14 3 -19 -3 -15 -6 3 -12 1 -14 -5 -7 -21
-38 4 -44 36 -4 23 -10 32 -20 28 -16 -6 -19 13 -4 22 6 3 10 11 10 18 0 6 -7
2 -15 -9 -8 -10 -15 -14 -15 -9 0 6 -41 9 -104 9 l-104 -2 -7 34 c-3 19 -3 38
0 43 3 6 1 12 -4 15 -5 4 -5 20 2 41 8 26 7 39 -1 47 -8 8 -7 17 4 33 16 25
10 34 -18 28z"/>
<path d="M1986 615 c-11 -8 -30 -15 -41 -15 -12 0 -30 -9 -40 -20 -21 -23 -4
-28 19 -5 8 8 26 16 39 17 14 1 30 10 36 20 13 22 12 22 -13 3z"/>
<path d="M2848 613 c10 -4 9 -10 -5 -27 -18 -21 -18 -21 3 -3 11 9 26 17 33
17 18 0 29 -41 22 -85 -6 -37 -9 -40 -36 -38 -15 1 -31 7 -35 13 -4 7 -13 3
-25 -10 -18 -20 -18 -20 16 -14 32 5 33 5 15 -10 -25 -20 -31 -20 -56 1 -22
19 -27 43 -9 43 6 0 8 -7 5 -16 -6 -14 -4 -15 9 -4 14 12 14 15 1 28 -16 16
-36 8 -36 -15 0 -13 -3 -13 -15 -3 -8 7 -15 9 -15 4 0 -4 -7 1 -15 12 -14 18
-15 17 -9 -11 12 -50 39 -70 94 -70 26 0 46 3 43 8 -2 4 5 7 16 7 12 0 21 -5
21 -12 0 -6 3 -8 6 -5 4 4 1 14 -7 23 -13 16 -11 17 13 12 25 -5 28 -2 33 31
4 20 11 47 16 61 9 21 7 28 -16 47 -14 13 -38 23 -53 22 -15 0 -21 -3 -14 -6z"/>
<path d="M174 583 c-15 -24 -15 -26 -1 -14 9 7 24 11 32 7 22 -8 19 -25 -4
-19 -34 9 -49 -46 -40 -144 1 -10 -2 -27 -6 -38 -8 -20 -8 -20 8 0 14 17 18
18 26 5 14 -21 25 -5 12 18 -17 32 -14 102 4 109 14 5 14 8 -1 24 -16 17 -15
18 14 7 38 -15 55 -2 27 19 -20 15 -20 15 3 8 17 -5 22 -2 22 13 0 15 -5 18
-24 15 -13 -3 -27 0 -30 6 -11 17 -22 13 -42 -16z"/>
<path d="M1284 591 c3 -5 -1 -14 -10 -21 -8 -7 -13 -19 -10 -27 3 -8 1 -11 -4
-8 -15 9 0 -27 22 -51 14 -16 17 -31 13 -72 -3 -29 -11 -68 -20 -87 -8 -20
-10 -33 -5 -30 6 3 10 2 10 -2 0 -5 -9 -14 -20 -20 -10 -7 -24 -22 -31 -34
-10 -20 -8 -19 24 5 27 21 35 34 36 59 0 44 15 90 29 95 8 2 7 -9 -3 -39 -16
-46 -14 -69 7 -69 9 0 9 3 -2 10 -11 7 -9 11 13 19 37 14 44 14 51 -5 9 -24
-38 -64 -76 -65 -31 0 -32 -1 -10 -11 12 -6 22 -20 22 -31 0 -20 -54 -89 -63
-81 -3 3 -19 -2 -36 -10 -16 -9 -39 -16 -50 -16 -11 0 -22 -4 -25 -8 -8 -13
85 -2 114 13 37 20 68 57 72 87 3 18 18 37 46 58 23 16 42 25 42 20 0 -7 7 -7
21 1 12 6 19 7 15 1 -3 -5 14 -17 38 -26 38 -15 46 -15 77 -2 l34 15 -67 1
c-46 0 -67 4 -65 12 1 6 -16 22 -38 35 -22 12 -39 27 -38 33 2 5 -2 10 -7 10
-5 0 -10 5 -10 11 0 5 4 7 10 4 6 -3 7 1 4 9 -5 14 -22 20 -45 18 -3 0 -6 18
-8 41 -3 52 -11 62 -11 14 0 -56 -17 -44 -19 13 -1 55 13 72 35 44 14 -18 15
-18 12 1 -4 27 -33 31 -54 6 -27 -31 -37 -13 -14 25 24 42 26 64 4 64 -8 0
-13 -4 -10 -9z m74 -237 c-11 -23 -13 -24 -19 -7 -7 17 -8 17 -9 -2 -1 -14 -3
-16 -7 -6 -3 8 2 20 13 28 27 20 35 16 22 -13z"/>
<path d="M4 568 c-3 -4 6 -8 20 -8 16 0 27 -7 31 -20 6 -19 25 -29 25 -12 -2
33 -61 65 -76 40z"/>
<path d="M1455 572 c-15 -10 -13 -161 2 -166 7 -3 15 -1 18 4 4 6 1 10 -4 10
-6 0 -2 9 9 20 11 11 20 26 20 33 0 8 4 7 10 -3 5 -8 10 -12 10 -7 0 8 -20 45
-36 67 -7 8 -14 23 -15 32 -2 10 -8 14 -14 10z"/>
<path d="M2465 537 c-16 -12 -31 -21 -32 -19 -10 8 -21 0 -17 -13 5 -12 12
-12 44 5 21 10 40 26 43 35 9 21 -2 18 -38 -8z"/>
<path d="M2577 553 c-4 -3 0 -17 8 -30 9 -13 11 -23 6 -23 -5 0 -13 5 -16 10
-3 6 -12 10 -18 10 -7 0 1 -11 17 -23 l29 -24 -23 -6 c-26 -7 -61 16 -57 37 1
6 -4 11 -12 11 -7 0 -22 -21 -32 -48 l-19 -48 26 -9 c14 -6 30 -10 36 -10 6 0
3 -10 -8 -22 l-19 -23 21 18 c20 16 22 16 28 2 11 -29 7 -37 -16 -32 -12 4
-28 1 -35 -5 -17 -14 -17 -88 0 -88 6 -1 1 -9 -12 -20 -12 -11 -28 -17 -35
-13 -6 3 -8 3 -4 -2 4 -4 -4 -24 -17 -43 -21 -31 -23 -38 -10 -45 8 -4 15 -13
15 -20 0 -7 9 -23 19 -36 14 -18 20 -21 26 -10 5 8 4 14 -3 17 -25 8 -42 58
-31 90 11 31 60 58 82 45 6 -3 3 4 -6 18 -9 13 -17 40 -17 61 0 31 4 38 19 38
22 0 31 -17 27 -54 -2 -14 1 -26 5 -26 5 0 9 -8 9 -18 0 -44 98 -94 140 -72
11 6 20 12 20 14 0 1 -22 2 -50 2 -33 -1 -55 4 -65 15 -21 20 -40 143 -31 193
9 47 53 97 87 99 23 2 25 5 16 24 -5 12 -14 20 -19 17 -4 -3 -6 -11 -2 -17 3
-7 -2 -3 -10 7 -9 11 -16 26 -16 33 0 7 -8 13 -17 13 -12 0 -14 -3 -6 -8 6 -4
14 -21 18 -37 l6 -30 -25 29 c-14 17 -23 33 -20 38 6 10 0 11 -9 1z m-35 -90
c19 -17 25 -73 8 -73 -9 0 -40 62 -40 81 0 14 11 11 32 -8z"/>
<path d="M1125 541 c-20 -8 -20 -8 0 -14 14 -4 11 -5 -10 -5 -61 2 -75 -2 -75
-19 0 -13 3 -14 12 -5 14 14 42 16 33 2 -7 -11 36 -24 62 -17 10 3 4 5 -14 6
-49 2 -40 19 14 27 42 6 45 8 28 20 -21 16 -22 16 -50 5z"/>
<path d="M355 518 c-33 -4 -76 -5 -95 -2 -19 2 -30 2 -24 -1 7 -3 10 -15 7
-25 -5 -17 -2 -18 24 -11 24 7 29 5 29 -9 0 -10 -6 -16 -12 -13 -7 2 -15 0
-19 -6 -3 -7 0 -8 9 -5 9 3 16 2 16 -4 0 -7 8 -6 24 1 15 7 22 17 18 26 -4 11
-1 13 14 8 18 -7 18 -6 1 7 -16 12 -16 14 -1 20 22 8 26 8 19 -4 -3 -5 0 -7 8
-4 8 3 20 -2 27 -11 7 -8 9 -15 5 -15 -4 0 -2 -7 5 -15 16 -19 3 -55 -19 -55
-26 0 -71 -38 -65 -54 7 -18 -27 -30 -38 -14 -6 8 -7 0 -3 -20 4 -20 2 -38 -5
-47 -9 -11 -9 -19 -2 -28 6 -7 10 -26 9 -42 -2 -25 4 -73 16 -120 6 -25 62
-75 84 -75 12 0 23 5 23 10 0 6 -5 9 -11 8 -24 -6 -19 22 5 32 15 5 37 19 49
31 l22 21 -40 -22 c-22 -11 -50 -28 -62 -37 -20 -14 -23 -14 -23 0 0 8 16 25
36 36 20 12 35 24 32 26 -6 7 -58 -18 -58 -27 0 -14 -23 -8 -36 10 -16 21 -18
68 -4 77 8 5 8 11 0 20 -6 7 -8 20 -4 29 3 9 1 16 -5 16 -17 0 -13 28 7 39 13
8 14 11 2 11 -11 1 -10 5 6 18 11 10 19 23 16 30 -2 7 5 12 18 12 19 0 20 2
10 15 -24 29 17 28 54 -2 35 -27 40 -44 39 -109 0 -7 15 -31 33 -54 19 -24 34
-47 34 -51 0 -5 6 -9 14 -9 20 0 24 -17 18 -80 -2 -30 -1 -52 3 -48 5 5 10 37
15 108 1 8 10 -14 21 -48 11 -35 22 -62 24 -60 2 2 -4 29 -13 59 -12 39 -28
65 -55 89 -42 37 -77 97 -77 132 0 13 9 40 20 60 20 37 20 38 0 48 -16 9 -18
8 -14 -5 4 -9 3 -15 -2 -14 -5 1 -16 1 -24 0 -13 -1 -13 -2 0 -11 8 -5 11 -12
8 -15 -9 -9 -58 27 -54 40 1 6 11 12 21 14 36 7 42 23 18 49 -13 14 -27 37
-31 51 -7 25 -8 26 -67 19z"/>
<path d="M472 505 c26 -14 49 -29 53 -35 10 -16 -5 -12 -37 11 -16 12 -31 19
-34 16 -2 -2 7 -12 21 -21 17 -11 24 -23 21 -33 -6 -16 18 -63 32 -63 4 1 18
10 31 21 18 15 21 23 13 31 -21 21 -13 32 8 13 34 -31 22 -1 -13 33 -33 32
-82 52 -122 52 -13 -1 -4 -9 27 -25z"/>
<path d="M2446 485 c-14 -11 -16 -19 -10 -39 9 -25 9 -24 26 14 18 43 14 48
-16 25z"/>
<path d="M1972 457 c-12 -7 -19 -17 -15 -22 4 -4 -1 -5 -12 -1 -16 6 -18 5 -7
-5 16 -17 15 -32 -1 -26 -8 3 -14 -1 -14 -9 0 -9 12 -14 36 -14 33 0 34 1 15
16 -19 15 -18 15 4 11 13 -3 20 -1 16 5 -10 16 18 28 35 15 10 -8 8 -3 -3 16
-21 31 -22 31 -54 14z"/>
<path d="M1042 432 c-19 -3 -21 -6 -12 -17 9 -11 9 -18 -3 -29 -8 -8 -18 -12
-22 -8 -5 4 -5 1 -1 -6 13 -22 17 -94 4 -86 -7 5 -8 3 -4 -5 6 -9 13 -8 26 6
19 19 17 38 -3 26 -7 -4 -6 0 2 10 14 18 53 17 59 -1 2 -7 -1 -12 -8 -12 -6 0
-8 5 -4 12 5 7 3 8 -6 3 -11 -7 -10 -10 1 -19 8 -6 15 -29 15 -53 1 -39 -1
-43 -23 -43 -16 0 -27 -8 -33 -26 -13 -32 -13 -31 3 -37 10 -4 13 2 10 21 -4
21 -2 24 6 12 6 -8 11 -10 11 -4 0 12 32 15 40 3 3 -4 5 26 5 66 0 53 4 78 16
91 9 11 14 26 11 34 -6 19 -52 66 -52 54 0 -5 -4 -4 -8 1 -4 6 -17 9 -30 7z"/>
<path d="M338 417 c-28 -27 -70 -48 -84 -43 -9 3 -12 1 -9 -4 4 -7 -6 -9 -29
-7 -40 5 -50 -1 -36 -18 20 -24 133 22 169 68 16 20 9 23 -11 4z"/>
<path d="M920 405 c-26 -28 -18 -32 20 -10 14 8 19 14 12 15 -7 0 -10 5 -7 10
11 18 -1 11 -25 -15z"/>
<path d="M570 381 c-25 -22 -41 -43 -37 -47 4 -5 12 -2 17 6 7 10 10 11 10 3
0 -7 5 -13 12 -13 9 0 9 3 0 12 -18 18 -14 31 8 25 15 -4 20 0 20 15 0 10 5
16 10 13 6 -3 10 1 10 9 0 21 2 22 -50 -23z"/>
<path d="M1250 371 c0 -37 16 -49 24 -18 9 35 7 47 -9 47 -10 0 -15 -10 -15
-29z"/>
<path d="M1868 340 c-23 -59 -26 -79 -13 -96 11 -15 10 -20 -4 -31 -14 -11
-13 -12 10 -13 33 0 41 8 28 31 -7 14 -6 19 2 19 8 0 7 5 -2 17 -12 15 -12 16
6 9 11 -5 36 -14 55 -21 19 -7 36 -17 37 -22 2 -4 -10 -23 -26 -41 -17 -17
-27 -32 -24 -32 3 0 -1 -8 -8 -17 -7 -10 -1 -7 15 7 15 14 37 42 47 62 11 21
23 37 27 37 19 -3 32 2 32 12 0 8 -4 8 -12 1 -15 -11 -125 18 -112 31 4 4 1 7
-8 7 -10 0 -14 9 -13 27 1 22 7 29 31 35 23 5 20 6 -15 5 -36 -2 -45 -6 -53
-27z"/>
<path d="M2135 357 c-16 -5 -35 -14 -41 -19 -14 -10 -26 -50 -13 -42 5 3 9 -1
9 -9 0 -8 -7 -18 -16 -21 -8 -3 -13 -10 -10 -15 3 -5 -8 -11 -24 -14 -19 -4
-35 -17 -45 -37 -17 -33 -7 -42 12 -10 25 39 113 43 113 5 0 -8 11 -25 25 -39
16 -16 23 -31 19 -43 -5 -15 -4 -16 5 -3 7 10 28 15 67 15 48 0 57 3 60 18 1
11 0 16 -4 13 -3 -4 -11 3 -18 15 l-12 22 -6 -21 c-6 -17 -15 -22 -42 -22 -39
0 -71 28 -98 84 -21 44 -20 58 5 90 17 21 27 26 50 22 18 -3 29 0 29 8 0 15
-26 16 -65 3z"/>
<path d="M2035 340 c-10 -12 -24 -19 -31 -16 -7 3 -20 -5 -31 -17 l-18 -22 24
20 c24 20 24 20 17 0 -6 -17 -2 -15 21 7 15 15 39 31 53 37 22 9 23 10 4 10
-11 1 -29 -8 -39 -19z"/>
<path d="M2670 339 c-13 -9 -12 -10 3 -5 9 3 17 1 17 -4 0 -6 -12 -11 -27 -11
-17 -1 -21 -3 -10 -6 16 -4 25 -24 10 -22 -18 3 -33 -2 -33 -10 0 -4 11 -6 25
-3 14 2 25 11 25 18 0 8 7 14 15 14 17 0 18 2 9 24 -7 19 -14 20 -34 5z"/>
<path d="M98 333 c-17 -4 -26 -43 -10 -43 13 0 28 15 35 33 7 17 5 18 -25 10z"/>
<path d="M227 325 c-8 -8 -17 -12 -20 -8 -3 3 -20 -5 -38 -18 -18 -13 -44 -23
-58 -24 -22 0 -26 -5 -27 -29 -1 -28 -1 -28 15 -8 9 11 26 23 39 27 12 3 22
11 22 16 0 5 7 9 15 9 8 0 15 5 15 10 0 6 5 10 10 10 7 0 7 -6 0 -19 -14 -28
-12 -36 5 -21 8 7 15 19 15 26 0 12 17 18 41 16 3 -1 6 6 6 14 0 18 -21 18
-40 -1z"/>
<path d="M1145 331 c-6 -10 1 -16 53 -42 31 -16 32 -16 32 5 0 37 -14 50 -40
36 -15 -8 -20 -8 -16 -1 4 6 1 11 -8 11 -8 0 -17 -4 -21 -9z"/>
<path d="M1610 321 c14 -27 30 -35 30 -16 0 10 5 13 13 9 8 -5 8 -2 -2 9 -7 9
-22 17 -33 17 -15 0 -17 -3 -8 -19z"/>
<path d="M390 320 c13 -8 13 -10 1 -10 -10 0 -12 -3 -5 -10 5 -5 19 -7 32 -3
21 5 21 6 5 19 -10 7 -25 13 -33 14 -13 0 -13 -1 0 -10z"/>
<path d="M590 324 c0 -6 3 -14 7 -17 10 -11 10 -56 -1 -54 -5 1 -12 -7 -14
-17 -4 -18 -3 -19 13 -3 9 9 20 17 24 17 14 0 9 36 -10 60 -10 14 -19 20 -19
14z"/>
<path d="M44 293 c4 -7 2 -13 -4 -13 -17 0 -33 -51 -19 -64 9 -8 10 -7 6 7 -4
11 1 25 14 38 17 17 18 23 9 33 -10 8 -11 8 -6 -1z"/>
<path d="M1660 265 c7 -9 10 -19 6 -23 -4 -4 -14 2 -22 12 -11 16 -14 17 -14
4 0 -9 6 -18 13 -21 6 -2 -17 -8 -53 -13 -60 -9 -69 -7 -110 15 -33 18 -41 20
-31 8 7 -9 18 -17 23 -17 5 0 16 -6 24 -14 12 -12 10 -16 -14 -24 -15 -6 -21
-11 -14 -11 7 -1 11 -5 7 -11 -3 -5 -13 -6 -23 -3 -14 5 -15 3 -4 -8 6 -7 12
-24 12 -38 1 -24 2 -23 16 9 36 84 86 101 140 49 31 -30 32 -30 67 -16 29 13
36 13 41 2 3 -8 2 -16 -2 -18 -4 -2 -2 -2 5 -1 6 2 13 -2 15 -8 3 -7 14 -5 34
5 20 10 35 12 46 6 11 -6 19 -6 23 1 3 5 -2 10 -12 10 -17 1 -17 1 0 14 16 12
16 14 1 20 -13 5 -14 9 -4 20 9 12 7 17 -11 26 -14 8 -19 8 -15 1 4 -6 1 -11
-8 -11 -21 0 -31 -20 -16 -33 10 -9 11 -9 5 2 -5 10 -4 12 4 7 8 -5 5 -16 -10
-37 -22 -32 -42 -28 -54 12 -6 17 -8 17 -21 4 -20 -20 -73 -20 -81 1 -8 21 10
37 41 37 30 0 29 -2 16 31 -5 14 -15 26 -21 26 -8 0 -8 -4 1 -15z"/>
<path d="M2352 213 c-2 -26 -6 -31 -19 -27 -16 5 -16 4 -2 -5 12 -8 16 -21 12
-48 -5 -38 -25 -67 -38 -55 -5 4 -5 1 -1 -6 9 -15 -15 -41 -54 -59 -25 -12
-25 -12 9 -12 37 -1 49 10 81 76 16 32 20 56 17 105 -2 35 -4 49 -5 31z"/>
<path d="M350 220 c14 -4 41 -8 60 -8 l35 0 -40 9 c-22 4 -49 8 -60 7 -16 0
-15 -2 5 -8z"/>
<path d="M1526 179 c-16 -13 -31 -40 -40 -72 -23 -85 -27 -107 -17 -107 5 0
12 18 16 40 4 22 10 38 14 35 5 -2 6 7 3 20 -2 15 0 25 7 25 7 0 9 5 6 11 -4
6 2 19 13 30 21 19 21 19 28 -16 3 -19 10 -35 14 -35 5 0 5 13 0 29 -12 43 13
48 39 8 12 -18 21 -25 21 -16 0 17 -50 69 -67 69 -6 0 -22 -9 -37 -21z"/>
<path d="M1406 155 c-16 -12 -22 -12 -35 -2 -14 10 -14 10 -3 -4 22 -29 50
-30 55 -3 2 13 4 24 3 24 0 0 -10 -7 -20 -15z"/>
<path d="M1980 151 c0 -5 -8 -18 -17 -27 -17 -17 -17 -18 0 -11 10 4 23 7 28
7 12 0 12 27 -1 35 -5 3 -10 2 -10 -4z"/>
<path d="M384 141 c3 -5 -5 -12 -19 -15 -14 -4 -25 -11 -25 -16 0 -6 19 -1 43
11 54 28 55 29 23 29 -15 0 -25 -4 -22 -9z"/>
<path d="M1660 146 c0 -5 8 -15 18 -23 15 -12 14 -13 -9 -7 -15 3 -30 1 -33
-4 -9 -14 62 -8 77 7 8 8 6 11 -9 11 -11 0 -25 5 -32 12 -7 7 -12 8 -12 4z"/>
<path d="M2700 120 c-9 -17 -5 -29 25 -70 33 -45 41 -50 75 -50 32 0 45 7 74
37 36 38 45 66 26 78 -6 4 -9 -3 -7 -16 4 -24 -20 -59 -40 -59 -7 0 -13 -4
-13 -8 0 -10 -62 -14 -75 -4 -25 17 -57 74 -52 92 7 26 1 25 -13 0z"/>
<path d="M1753 123 c-26 -5 -28 -11 -9 -35 15 -20 28 -14 19 10 -4 9 -2 13 4
9 5 -3 10 0 10 8 0 8 -1 14 -1 14 -1 -1 -11 -4 -23 -6z"/>
<path d="M1811 110 c20 -16 21 -19 7 -20 -10 0 -18 -5 -18 -11 0 -5 -6 -7 -12
-3 -10 5 -10 3 0 -7 11 -12 14 -12 22 1 7 10 10 11 10 2 0 -16 46 13 54 35 5
12 1 14 -19 11 -13 -3 -22 -1 -19 3 3 5 -7 9 -22 9 l-26 0 23 -20z"/>
<path d="M640 75 c20 -20 36 -31 39 -24 2 6 -9 22 -25 35 -44 36 -52 29 -14
-11z"/>
<path d="M2004 76 c0 -24 4 -32 13 -29 8 3 13 -3 13 -15 0 -19 18 -32 46 -32
9 0 2 16 -21 46 -19 25 -35 50 -35 55 0 5 -4 9 -8 9 -4 0 -8 -15 -8 -34z"/>
<path d="M1694 94 c-7 -3 -10 -14 -7 -25 4 -15 0 -22 -16 -26 -17 -4 -32 -33
-17 -33 2 0 12 -3 22 -7 13 -5 16 -3 11 10 -4 10 2 33 13 52 19 34 18 39 -6
29z"/>
<path d="M496 49 c-23 -27 -33 -49 -22 -49 2 0 15 18 30 40 31 48 28 52 -8 9z"/>
<path d="M1625 64 c15 -16 18 -16 33 0 15 15 14 16 -17 16 -30 0 -31 -1 -16
-16z"/>
<path d="M2121 55 c-26 -28 -18 -34 12 -8 18 17 18 17 6 -10 -13 -29 -4 -51
11 -27 12 18 13 70 3 70 -5 0 -19 -12 -32 -25z"/>
<path d="M1723 57 c4 -10 7 -21 7 -23 0 -2 7 -4 15 -4 8 0 15 -5 15 -11 0 -7
-10 -9 -25 -7 -14 3 -28 1 -31 -3 -3 -5 10 -9 30 -9 19 0 37 6 39 13 4 9 8 9
15 -1 7 -11 10 -10 16 3 9 25 9 25 -23 25 -16 0 -38 8 -47 18 -17 16 -18 16
-11 -1z"/>
<path d="M2490 48 c0 -4 6 -8 13 -8 6 0 23 -3 37 -6 24 -6 24 -6 5 8 -22 16
-55 20 -55 6z"/>
</g>
</svg>
