<svg width="409" height="50" viewBox="0 0 409 50" fill="none" xmlns="http://www.w3.org/2000/svg">
<path d="M0.893993 49.037C0.5926 49.037 0.347992 48.2588 0.347992 47.3V1.73705C0.347992 0.7782 0.5926 0 0.893993 0C1.19538 0 1.43999 0.7782 1.43999 1.73705V47.3C1.43999 48.2588 1.19538 49.037 0.893993 49.037Z" fill="#68686825"/>
<path d="M19.4198 49.037C19.1184 49.037 18.8738 48.2588 18.8738 47.2999V24.5167C18.8738 23.5579 19.1184 22.7797 19.4198 22.7797C19.7212 22.7797 19.9658 23.5579 19.9658 24.5167V47.2999C19.9658 48.2588 19.7212 49.037 19.4198 49.037Z" fill="#68686825"/>
<path d="M37.9445 49.037C37.6431 49.037 37.3985 48.2588 37.3985 47.3V1.73705C37.3985 0.7782 37.6431 0 37.9445 0C38.2459 0 38.4905 0.7782 38.4905 1.73705V47.3C38.4905 48.2588 38.2459 49.037 37.9445 49.037Z" fill="#68686825"/>
<path d="M56.4703 49.037C56.1689 49.037 55.9243 48.2588 55.9243 47.2999V24.5167C55.9243 23.5579 56.1689 22.7797 56.4703 22.7797C56.7717 22.7797 57.0163 23.5579 57.0163 24.5167V47.2999C57.0163 48.2588 56.7728 49.037 56.4703 49.037Z" fill="#68686825"/>
<path d="M74.995 49.037C74.6936 49.037 74.449 48.2588 74.449 47.3V1.73705C74.449 0.7782 74.6936 0 74.995 0C75.2964 0 75.541 0.7782 75.541 1.73705V47.3C75.541 48.2588 75.2964 49.037 74.995 49.037Z" fill="#68686825"/>
<path d="M93.5208 49.037C93.2194 49.037 92.9748 48.2588 92.9748 47.2999V24.5167C92.9748 23.5579 93.2194 22.7797 93.5208 22.7797C93.8222 22.7797 94.0668 23.5579 94.0668 24.5167V47.2999C94.0668 48.2588 93.8233 49.037 93.5208 49.037Z" fill="#68686825"/>
<path d="M112.047 49.037C111.745 49.037 111.501 48.2588 111.501 47.3V1.73705C111.501 0.7782 111.745 0 112.047 0C112.348 0 112.593 0.7782 112.593 1.73705V47.3C112.593 48.2588 112.348 49.037 112.047 49.037Z" fill="#68686825"/>
<path d="M130.572 49.037C130.271 49.037 130.026 48.2588 130.026 47.2999V24.5167C130.026 23.5579 130.271 22.7797 130.572 22.7797C130.874 22.7797 131.118 23.5579 131.118 24.5167V47.2999C131.118 48.2588 130.874 49.037 130.572 49.037Z" fill="#68686825"/>
<path d="M149.097 49.037C148.796 49.037 148.551 48.2588 148.551 47.3V1.73705C148.551 0.7782 148.796 0 149.097 0C149.399 0 149.643 0.7782 149.643 1.73705V47.3C149.643 48.2588 149.399 49.037 149.097 49.037Z" fill="#68686825"/>
<path d="M167.623 49.037C167.322 49.037 167.077 48.2588 167.077 47.2999V24.5167C167.077 23.5579 167.322 22.7797 167.623 22.7797C167.924 22.7797 168.169 23.5579 168.169 24.5167V47.2999C168.169 48.2588 167.925 49.037 167.623 49.037Z" fill="#68686825"/>
<path d="M186.148 49.037C185.846 49.037 185.602 48.2588 185.602 47.3V1.73705C185.602 0.7782 185.846 0 186.148 0C186.449 0 186.694 0.7782 186.694 1.73705V47.3C186.694 48.2588 186.449 49.037 186.148 49.037Z" fill="#68686825"/>
<path d="M204.674 49.037C204.373 49.037 204.128 48.2588 204.128 47.2999V24.5167C204.128 23.5579 204.373 22.7797 204.674 22.7797C204.976 22.7797 205.22 23.5579 205.22 24.5167V47.2999C205.22 48.2588 204.976 49.037 204.674 49.037Z" fill="#68686825"/>
<path d="M223.199 49.037C222.898 49.037 222.653 48.2588 222.653 47.3V1.73705C222.653 0.7782 222.898 0 223.199 0C223.501 0 223.745 0.7782 223.745 1.73705V47.3C223.745 48.2588 223.501 49.037 223.199 49.037Z" fill="#68686825"/>
<path d="M241.725 49.037C241.424 49.037 241.179 48.2588 241.179 47.2999V24.5167C241.179 23.5579 241.424 22.7797 241.725 22.7797C242.026 22.7797 242.271 23.5579 242.271 24.5167V47.2999C242.271 48.2588 242.026 49.037 241.725 49.037Z" fill="#68686825"/>
<path d="M260.249 49.037C259.947 49.037 259.703 48.2588 259.703 47.3V1.73705C259.703 0.7782 259.947 0 260.249 0C260.55 0 260.795 0.7782 260.795 1.73705V47.3C260.795 48.2588 260.551 49.037 260.249 49.037Z" fill="#68686825"/>
<path d="M278.775 49.037C278.474 49.037 278.229 48.2588 278.229 47.2999V24.5167C278.229 23.5579 278.474 22.7797 278.775 22.7797C279.077 22.7797 279.321 23.5579 279.321 24.5167V47.2999C279.321 48.2588 279.078 49.037 278.775 49.037Z" fill="#68686825"/>
<path d="M297.3 49.037C296.999 49.037 296.754 48.2588 296.754 47.3V1.73705C296.754 0.7782 296.999 0 297.3 0C297.602 0 297.846 0.7782 297.846 1.73705V47.3C297.846 48.2588 297.603 49.037 297.3 49.037Z" fill="#68686825"/>
<path d="M315.826 49.037C315.525 49.037 315.28 48.2588 315.28 47.2999V24.5167C315.28 23.5579 315.525 22.7797 315.826 22.7797C316.127 22.7797 316.372 23.5579 316.372 24.5167V47.2999C316.372 48.2588 316.127 49.037 315.826 49.037Z" fill="#68686825"/>
<path d="M334.352 49.037C334.051 49.037 333.806 48.2588 333.806 47.3V1.73705C333.806 0.7782 334.051 0 334.352 0C334.653 0 334.898 0.7782 334.898 1.73705V47.3C334.898 48.2588 334.653 49.037 334.352 49.037Z" fill="#68686825"/>
<path d="M352.878 49.037C352.576 49.037 352.332 48.2588 352.332 47.2999V24.5167C352.332 23.5579 352.576 22.7797 352.878 22.7797C353.179 22.7797 353.424 23.5579 353.424 24.5167V47.2999C353.424 48.2588 353.179 49.037 352.878 49.037Z" fill="#68686825"/>
<path d="M371.402 49.037C371.101 49.037 370.856 48.2588 370.856 47.3V1.73705C370.856 0.7782 371.101 0 371.402 0C371.704 0 371.948 0.7782 371.948 1.73705V47.3C371.948 48.2588 371.704 49.037 371.402 49.037Z" fill="#68686825"/>
<path d="M389.927 49.037C389.626 49.037 389.381 48.2588 389.381 47.2999V24.5167C389.381 23.5579 389.626 22.7797 389.927 22.7797C390.228 22.7797 390.473 23.5579 390.473 24.5167V47.2999C390.473 48.2588 390.23 49.037 389.927 49.037Z" fill="#68686825"/>
<path d="M408.454 49.037C408.153 49.037 407.908 48.2588 407.908 47.3V1.73705C407.908 0.7782 408.153 0 408.454 0C408.755 0 409 0.7782 409 1.73705V47.3C409 48.2588 408.756 49.037 408.454 49.037Z" fill="#68686825"/>
</svg>
