<svg width="33" height="33" viewBox="0 0 33 33" fill="none" xmlns="http://www.w3.org/2000/svg">
<path d="M0.783997 16.51C0.783997 25.225 7.849 32.291 16.565 32.291C25.28 32.29 32.345 25.225 32.345 16.51C32.345 7.795 25.28 0.728996 16.565 0.728996C7.85 0.728996 0.783997 7.794 0.783997 16.51Z" fill="#F0F5F7"/>
<path d="M16.565 1.51C24.595 1.51 31.155 7.82 31.545 15.77C31.055 16.16 30.535 16.54 29.985 16.88C29.995 16.76 29.995 16.63 29.995 16.51C29.995 9.09 23.975 3.08 16.565 3.08C9.14502 3.08 3.13501 9.09 3.13501 16.51C3.13501 16.63 3.13502 16.76 3.14502 16.88C2.59502 16.54 2.07502 16.16 1.58502 15.77C1.97502 7.82 8.53502 1.51 16.565 1.51Z" fill="#C3D3DD"/>
<path d="M16.565 3.08C23.975 3.08 29.995 9.09 29.995 16.51C29.995 16.63 29.995 16.76 29.985 16.88C26.395 19.18 21.695 20.57 16.565 20.57C11.435 20.57 6.73502 19.18 3.14502 16.88C3.13502 16.76 3.13501 16.63 3.13501 16.51C3.13501 9.09 9.14502 3.08 16.565 3.08Z" fill="#F0F5F7"/>
<path d="M29.985 16.88C29.795 24.12 23.855 29.94 16.565 29.94C9.26502 29.94 3.33502 24.12 3.14502 16.88C6.73502 19.18 11.435 20.57 16.565 20.57C21.695 20.57 26.395 19.18 29.985 16.88Z" fill="#DCE8EF"/>
<path d="M31.565 16.51C31.565 24.79 24.845 31.51 16.565 31.51C8.285 31.51 1.565 24.79 1.565 16.51C1.565 16.26 1.57501 16.01 1.58501 15.77C2.07501 16.16 2.595 16.54 3.145 16.88C3.335 24.12 9.265 29.94 16.565 29.94C23.855 29.94 29.795 24.12 29.985 16.88C30.535 16.54 31.055 16.16 31.545 15.77C31.555 16.01 31.565 16.26 31.565 16.51Z" fill="#758D9E"/>
<path d="M16.399 5.491C23.245 5.491 28.806 11.043 28.806 17.898C28.806 18.144 28.784 18.384 28.769 18.627C28.888 17.938 28.963 17.233 28.963 16.51C28.963 9.66 23.405 4.111 16.564 4.111C10.019 4.111 4.674 9.18 4.211 15.608C5.287 9.85 10.328 5.491 16.399 5.491Z" fill="white"/>
</svg>
